<svg xmlns="http://www.w3.org/2000/svg" viewBox="0 0 731 194"><defs><style>.cls-1{fill:#c7e1e9;}.cls-16,.cls-2{fill:#fff;}.cls-3{fill:#d8e9f1;}.cls-4{fill:#98c8db;}.cls-5{fill:#e2eff4;}.cls-11,.cls-14,.cls-18,.cls-20,.cls-21,.cls-23,.cls-24,.cls-25,.cls-26,.cls-27,.cls-28,.cls-31,.cls-6,.cls-7,.cls-8{fill:none;}.cls-20,.cls-21,.cls-6,.cls-8{stroke:#fff;}.cls-10,.cls-11,.cls-18,.cls-23,.cls-24,.cls-25,.cls-26,.cls-27,.cls-31,.cls-6,.cls-7,.cls-8{stroke-miterlimit:10;}.cls-7{stroke:#d8e9f1;}.cls-11,.cls-14,.cls-18,.cls-21,.cls-22,.cls-23,.cls-25,.cls-27,.cls-28,.cls-7,.cls-8{stroke-linecap:round;}.cls-9{fill:#e70000;}.cls-10{fill:#ef3c3c;}.cls-10,.cls-11{stroke:#ef3c3c;}.cls-12{fill:#f5bbbb;}.cls-13{fill:#e9626b;}.cls-14,.cls-16,.cls-18{stroke:#59221d;}.cls-14,.cls-16,.cls-20,.cls-21,.cls-22,.cls-28{stroke-linejoin:round;}.cls-15{fill:#59221d;}.cls-17{fill:#a74602;}.cls-19{fill:#f3b304;}.cls-22{fill:#2a2218;}.cls-22,.cls-23,.cls-24{stroke:#2a2218;}.cls-25{stroke:#a74602;}.cls-26,.cls-27,.cls-28{stroke:#e71438;}.cls-29{fill:#f01428;}.cls-30{fill:#2e2a25;}.cls-31{stroke:#e70000;}</style></defs><g id="Calque_2" data-name="Calque 2"><g id="aircanada"><g id="Layer_2" data-name="Layer 2"><g id="Слой_1" data-name="Слой 1"><path id="BLUE_BACKGROUND" data-name="BLUE BACKGROUND" class="cls-1" d="M478.63,160.46C478.63,73,372.34,2.15,241.23,2.15S3.83,73,3.83,160.46Z"/><g id="SMALL_PLANE" data-name="SMALL PLANE"><path class="cls-2" d="M409.24,77.58c0,.16-.17.29-.39.31l-21.16,1.3-1.94,1.88a5.69,5.69,0,0,1-3.91,1.42H342.08c-2.33,0-3.41-2.11-1.65-3.22l-24-1.47c-.19,0-.34-.12-.34-.26s.16-.27.37-.27h66.07a10.8,10.8,0,0,0,4.67-1L391,74.39a2.27,2.27,0,0,1,1-.23h.84l-3.21,3.11h19.14C409.05,77.27,409.24,77.41,409.24,77.58Z"/><path class="cls-3" d="M316.12,77.54h0c0,.14.15.25.34.27l24,1.46,1.61-1Z"/><path class="cls-3" d="M409.24,77.58h0c0,.16-.17.29-.39.31l-40.41,2.48-2.24-1.43Z"/><path class="cls-2" d="M332.11,79.7c0,1.2-1.11,1.81-2.89,1.81a4.41,4.41,0,0,1-1.86-.34,1.63,1.63,0,0,0,.59.1,1.57,1.57,0,1,0,0-3.14,1.63,1.63,0,0,0-.59.11h0a4.56,4.56,0,0,1,1.86-.33C331.06,77.9,332.11,78.56,332.11,79.7Z"/><ellipse class="cls-4" cx="327.95" cy="79.7" rx="1.61" ry="1.57"/><path class="cls-2" d="M371,79.7c0,1.2-1.11,1.81-2.89,1.81a4.41,4.41,0,0,1-1.86-.34,1.63,1.63,0,0,0,.59.1,1.57,1.57,0,1,0,0-3.14,1.63,1.63,0,0,0-.59.11h0a4.59,4.59,0,0,1,1.86-.33C369.92,77.9,371,78.56,371,79.7Z"/><ellipse class="cls-4" cx="366.81" cy="79.7" rx="1.61" ry="1.57"/><path class="cls-4" d="M346.22,79.14h-5.6l1.43-.87h3.53a.73.73,0,0,1,.66.34l.17.35c0,.07,0,.15-.12.18Z"/><path class="cls-4" d="M351.14,78.27h.12c.18,0,.33.11.33.24v.39c0,.14-.15.24-.33.24h-.12c-.18,0-.33-.1-.33-.24v-.39C350.81,78.38,351,78.27,351.14,78.27Z"/><path class="cls-4" d="M353.31,78.27h.12c.18,0,.33.11.33.24v.39c0,.14-.15.24-.33.24h-.12c-.18,0-.33-.1-.33-.24v-.39C353,78.38,353.13,78.27,353.31,78.27Z"/><path class="cls-4" d="M355.49,78.27h.12c.18,0,.33.11.33.24v.39c0,.14-.15.24-.33.24h-.12c-.19,0-.33-.1-.33-.24v-.39C355.16,78.38,355.3,78.27,355.49,78.27Z"/><path class="cls-4" d="M357.66,78.27h.12c.18,0,.33.11.33.24v.39c0,.14-.15.24-.33.24h-.12c-.18,0-.33-.1-.33-.24v-.39C357.33,78.38,357.48,78.27,357.66,78.27Z"/><path class="cls-4" d="M359.84,78.27H360c.18,0,.33.11.33.24v.39c0,.14-.15.24-.33.24h-.12c-.19,0-.33-.1-.33-.24v-.39C359.51,78.38,359.65,78.27,359.84,78.27Z"/><path class="cls-4" d="M362,78.27h.12c.18,0,.33.11.33.24v.39c0,.14-.15.24-.33.24H362c-.18,0-.33-.1-.33-.24v-.39C361.68,78.38,361.83,78.27,362,78.27Z"/></g><g id="BIG_PLANE" data-name="BIG PLANE"><path class="cls-2" d="M364.28,122.34,355,129.88a5.64,5.64,0,0,1-3.22,1.15L148,141.94a29.88,29.88,0,0,0,4.21-13.07H349.9a7.13,7.13,0,0,0,3.74-1l9-5.54Z"/><path class="cls-5" d="M352.92,130.93l-204.9,11a31,31,0,0,0,3.32-7.82Z"/><ellipse class="cls-2" cx="178.98" cy="146.32" rx="15.95" ry="11.62"/><ellipse class="cls-4" cx="179.01" cy="146.34" rx="12.32" ry="8.98"/><ellipse class="cls-6" cx="179.01" cy="146.34" rx="1.95" ry="1.42"/><path class="cls-2" d="M63.31,141.93,6.07,138.86c.38-1.87.8-3.72,1.28-5.57.37-1.48.78-2.95,1.22-4.42H59.1A29.88,29.88,0,0,0,63.31,141.93Z"/><path class="cls-5" d="M63.31,141.93,6.07,138.86c.38-1.87.8-3.72,1.28-5.57l52.65.83A30.71,30.71,0,0,0,63.31,141.93Z"/><ellipse class="cls-2" cx="32.57" cy="146.32" rx="15.95" ry="11.62"/><ellipse class="cls-4" cx="32.54" cy="146.34" rx="12.32" ry="8.98"/><ellipse class="cls-6" cx="32.54" cy="146.34" rx="1.95" ry="1.42"/><path class="cls-2" d="M110.71,90.73H100.62l4.08-43.59a1,1,0,0,1,1.09-.61.9.9,0,0,1,.84.61Z"/><path class="cls-2" d="M197.82,99.21l0,1.05-53.53,6a38.7,38.7,0,0,0-3.38-3.4Z"/><path class="cls-2" d="M70.48,102.86a39.65,39.65,0,0,0-3.36,3.38l-53-6,0-1.05Z"/><path class="cls-5" d="M105.67,90.39V46.53a.91.91,0,0,1,1,.61l4.08,43.59Z"/><ellipse class="cls-5" cx="105.67" cy="126.7" rx="46.65" ry="36.31"/><path class="cls-2" d="M147.94,111.32c-2.24,16.91-32,32.2-42.27,32.2-10.89,0-40.07-15.29-42.27-32.2C70.83,99,87,90.39,105.67,90.39S140.5,99,147.94,111.32Z"/><path class="cls-4" d="M85.38,110.93V117l-9.08,2.14,6.18-7a3.91,3.91,0,0,1,2.91-1.15Z"/><rect class="cls-4" x="86.66" y="110.93" width="19.1" height="6.06"/><rect class="cls-4" x="107.18" y="110.93" width="18.97" height="6.06"/><path class="cls-4" d="M127.52,110.93V117l9.13,2.15-6.13-7a3.91,3.91,0,0,0-2.92-1.17Z"/></g><g id="CONTOURS"><path class="cls-2" d="M241.68,2.15v158.3h-.91V2.15Z"/><path class="cls-2" d="M451.86,87.36H30.6l.52-.66H451.34Z"/><path class="cls-2" d="M63.63,55.4v105h-.9V56.09Z"/><path class="cls-2" d="M123,23.15V160.46h-.91V23.5Z"/><path class="cls-3" d="M123,93V137.8l-.91.41V92.72Z"/><path class="cls-2" d="M182.33,7.06v153.4h-.9V7.22Z"/><path class="cls-2" d="M419.73,56.09V160.43h-.91V55.4Z"/><path class="cls-2" d="M360.38,23.5V160.43h-.91V23.15Z"/><path class="cls-2" d="M301,7.22V160.43h-.91V7.06Z"/><rect class="cls-3" x="359.47" y="77.27" width="0.91" height="5.32"/></g><g id="FLOOR"><rect class="cls-2" x="3.83" y="160.46" width="474.8" height="12.54"/><line class="cls-7" x1="3.31" y1="173.24" x2="476.03" y2="173.24"/><path class="cls-3" d="M476.36,173.24c0,.13-.15.24-.33.24H3.32c-.18,0-.3-.15-.27-.28a.3.3,0,0,1,.27-.2H476A.31.31,0,0,1,476.36,173.24Z"/><polygon class="cls-3" points="241.81 160.46 203.45 173 202 173.47 200.42 173.47 201.86 173 240.22 160.46 241.81 160.46"/><polygon class="cls-3" points="63.69 160.46 25.5 173 24.07 173.47 22.48 173.47 23.93 173 62.11 160.46 63.69 160.46"/><polygon class="cls-3" points="123.13 160.46 84.76 173 83.32 173.47 81.73 173.47 83.17 173 121.54 160.46 123.13 160.46"/><polygon class="cls-3" points="182.46 160.46 143.82 173 142.36 173.47 140.77 173.47 142.22 173 180.86 160.46 182.46 160.46"/><polygon class="cls-3" points="421.64 160.46 383.18 173 381.73 173.47 380.14 173.47 381.59 173 420.05 160.46 421.64 160.46"/><polygon class="cls-3" points="478.4 160.46 439.4 173 437.93 173.47 436.32 173.47 437.79 173 476.79 160.46 478.4 160.46"/><polygon class="cls-3" points="360.39 160.46 321.92 173 320.46 173.47 318.87 173.47 320.33 173 358.8 160.46 360.39 160.46"/><path class="cls-3" d="M380.14,173.47h1.59l-20.61,6.72a.27.27,0,0,1-.13,0c-.18,0-.32-.12-.31-.25a.26.26,0,0,1,.18-.2Z"/><polygon class="cls-3" points="301.12 160.46 262.67 173 261.22 173.47 259.63 173.47 261.08 173 299.53 160.46 301.12 160.46"/></g><g id="ESCALATOR"><path class="cls-4" d="M460.21,99.21l-55.57,43.67H394.26c-6.66,0-12.06,3.93-12.06,8.79h0a8,8,0,0,0,3.53,6.31,13.75,13.75,0,0,0,6,2.38l.72.1H369.92a14.54,14.54,0,0,1-8.2-2.57,8,8,0,0,1-3.53-6.32c0-4.85,5.4-8.79,12.06-8.79h10.39L451.59,87A146,146,0,0,1,460.21,99.21Z"/><path class="cls-2" d="M419.88,160.46l-.12.09h-25.5a15.5,15.5,0,0,1-1.8-.09l-.72-.1a13.75,13.75,0,0,1-6-2.38,8,8,0,0,1-3.53-6.31c0-4.86,5.39-8.79,12.06-8.79h10.38l55.68-43.75a125.54,125.54,0,0,1,10.6,20.81Z"/><path class="cls-8" d="M459.28,97.77l-55.94,44h-9.62c-7.45,0-13.49,4.4-13.49,9.83h0c0,4,3.28,7.53,8,9.06"/></g><g id="PLANT"><path class="cls-9" d="M446.83,114s-8.66,13.34-1.26,30.83h5.66S455.62,125.6,446.83,114Z"/><path class="cls-10" d="M448.15,130.78c.32,4.88.65,9.95.92,13.9a.23.23,0,0,1-.25.19h0c-.14,0-.26-.07-.26-.17-.43-6.21-1-15.16-1.42-21.81l-2.86-3.07c.06-.17.11-.33.16-.5l2.66,2.85c-.24-3.74-.42-6.65-.49-7.74l.23-.39.29.39c.11,1.84.53,8.48,1,15.68l3.56-4.24c0,.2.07.4.1.6l-3.6,4.3Z"/><path class="cls-11" d="M442.11,144.87s-4.87-4.68-2.57-14.51c0,0,7.91,6,6.73,14.51Z"/><path class="cls-12" d="M458.15,124.51s1.68,11.24-4.87,20.36h-4.76S448.84,133,458.15,124.51Z"/><path class="cls-9" d="M453.58,144.87s5-3.76,5.56-7c0,0-7.91,2.62-7.91,7Z"/><polygon class="cls-2" points="452.44 160.51 443.1 160.51 441.69 144.69 453.85 144.69 452.44 160.51"/><ellipse class="cls-11" cx="454.16" cy="125.14" rx="0.86" ry="0.63"/><ellipse class="cls-11" cx="438.06" cy="143.03" rx="0.86" ry="0.63"/></g><g id="MAN"><line id="GROUND" class="cls-7" x1="272.91" y1="192.16" x2="389.16" y2="192.16"/><g id="SUITCASE"><path class="cls-13" d="M377.27,188.55H353.08l-12.7-37.93h27.28c2.91,0,5.45,1.45,6.14,3.51l9.61,28.72c.82,2.47-1.25,5-4.64,5.57A9.39,9.39,0,0,1,377.27,188.55Z"/><path class="cls-8" d="M340.81,150.62h27.28c2.91,0,5.45,1.45,6.14,3.51l9.61,28.72"/><path class="cls-8" d="M346.54,150.66c2.95,0,5.51,1.47,6.21,3.56l9.59,28.86c.83,2.5-1.27,5-4.7,5.63a8.59,8.59,0,0,1-1.52.13"/><line class="cls-8" x1="357.06" y1="154.22" x2="366.64" y2="183.08"/><line class="cls-8" x1="360.43" y1="154.22" x2="370.02" y2="183.08"/><line class="cls-8" x1="363.81" y1="154.22" x2="373.4" y2="183.08"/><line class="cls-8" x1="367.19" y1="154.22" x2="376.77" y2="183.08"/><line class="cls-8" x1="370.56" y1="154.22" x2="380.15" y2="183.08"/><ellipse class="cls-14" cx="356.3" cy="190.57" rx="1.45" ry="1.06"/><ellipse class="cls-14" cx="375.37" cy="190.57" rx="1.45" ry="1.06"/><path class="cls-14" d="M352.92,188.31l-15.32-46c-.38-1.15.59-2.3,2.16-2.58a4,4,0,0,1,.69-.06h4.65a3.54,3.54,0,0,1,3.48,2l2.73,8.37"/></g><g id="SHOES"><path id="RIGHT" class="cls-15" d="M337.38,191.85H317.74l5.1-5s5.08,2.1,16,1.81h0l.47,1.41c.26.79-.4,1.59-1.48,1.78A3.88,3.88,0,0,1,337.38,191.85Z"/><path id="LEFT" class="cls-15" d="M291.27,186.82c.36.14,5.65,2.18,17.39,1.81v2c0,.6-.69,1.08-1.55,1.08H286.87Z"/></g><g id="LEGS"><path class="cls-16" d="M338.53,188.64h0c-10.41.28-15.25-1.72-15.25-1.72l-14.91-39.26v41c-11.25.38-16.44-1.66-16.78-1.8V124.59h25.57L338,186.92Z"/><polyline class="cls-14" points="308.33 147.67 308.33 134.91 311.55 134.22"/></g><g id="HANDS"><g id="RIGHT-2"><path class="cls-17" d="M345.71,142.49l-5.45.11a1.23,1.23,0,0,1-1.11-.53l-.37-.66-2.88,0a2,2,0,0,1-1.64-.74L325.91,128l-.15-.24h0c-.5-1.09,1.53-2.54,4.27-3.21s5.37-.33,5.87.76l5.57,11.53,1.34,0a2.91,2.91,0,0,1,2.61,1.34l1.49,3c.25.5-.11,1.06-.8,1.24A2.57,2.57,0,0,1,345.71,142.49Z"/><line class="cls-18" x1="340.07" y1="136.85" x2="342.82" y2="136.87"/><path class="cls-18" d="M344.09,142.31c.73,0,1.31-.46,1.28-1a.6.6,0,0,0-.08-.29l-.82-1.65"/><path class="cls-18" d="M342.29,142.34c.73,0,1.31-.47,1.28-1a.67.67,0,0,0-.08-.3l-.82-1.64"/><path class="cls-18" d="M340.56,142.38c.73,0,1.3-.47,1.28-1a.84.84,0,0,0-.08-.3l-.83-1.64"/><path class="cls-18" d="M338.92,141.26v-.4c0-.68-.9-1.23-1.83-1.23l-.5-1"/></g><g id="LEFT-2"><path class="cls-2" d="M270.13,137.55l15.16,1.68c.38,0,.64.3.58.57l-.78,3.74a.68.68,0,0,1-.78.42l-15.16-1.67c-.38,0-.64-.3-.58-.58l.78-3.74A.69.69,0,0,1,270.13,137.55Z"/><path class="cls-9" d="M270.4,137.06l.47.05-1,4.72-.47-.05c-.49-.06-.81-.4-.73-.75h0l.7-3.41A.89.89,0,0,1,270.4,137.06Z"/><path class="cls-9" d="M285.91,139.43l-.7,3.4a.89.89,0,0,1-1,.57h0l-.41-.05,1-4.72.41.05C285.67,138.74,286,139.07,285.91,139.43Z"/><path class="cls-17" d="M289.4,126.15h0L282,143a2.21,2.21,0,0,1-2.14,1l-5.27-.23a1.19,1.19,0,0,1-.85-.36l-1.67-1.86a1.24,1.24,0,0,1,.05-1.72l2.68-2.9,4-12.35c.83-.82,3.23-1.24,5.78-.93C287.61,124,289.69,125,289.4,126.15Z"/><line class="cls-18" x1="274" y1="143.46" x2="274.23" y2="140.89"/><line class="cls-18" x1="276.02" y1="143.68" x2="276.25" y2="141.01"/><line class="cls-18" x1="278.11" y1="143.8" x2="278.35" y2="141.13"/><line class="cls-18" x1="279.95" y1="143.84" x2="280.19" y2="141.17"/></g></g><g id="HEAD"><polygon id="NECK" class="cls-17" points="300.13 100.38 300.13 96 306.82 95.73 310 100.38 300.13 100.38"/><g id="FACE"><path class="cls-17" d="M299,94.71l-.63-.25c-.2-.08-.27-.26-.16-.41h0l1.7-2.27a1.47,1.47,0,0,1,1.1-.53,1.5,1.5,0,0,1,1,.19l1.63.94a1,1,0,0,1,.47,1.32l-.61,1.1a1.52,1.52,0,0,1-1.61.54Z"/><line class="cls-18" x1="301.79" y1="92.75" x2="300.78" y2="92.45"/><ellipse class="cls-15" cx="300.77" cy="93.5" rx="0.44" ry="0.3" transform="translate(24.16 244.13) rotate(-45.84)"/></g><g id="EAR"><path class="cls-18" d="M307,96.42a2.15,2.15,0,0,1-1.54.09l-.86-.27"/><path class="cls-17" d="M305.6,96.32l-.85-.27.75-1.67a1,1,0,0,1,1.11-.41l.14,0,.18.07c.83.26,1.22,1,.86,1.57h0l0,0A1.93,1.93,0,0,1,305.6,96.32Z"/><path class="cls-18" d="M305.76,95.06a1.22,1.22,0,0,1,1.37-.39"/></g><path id="HAIR" class="cls-19" d="M306.75,94a1.08,1.08,0,0,0-1.19.27l-.06.1-1,2.23a3.47,3.47,0,0,1-2.24.55l-2.35,0c-.86,0-1.53-.54-1.51-1.17a1,1,0,0,1,.12-.42l.49-.82,2.88.63a1.52,1.52,0,0,0,1.62-.55l.61-1.09a1,1,0,0,0-.47-1.32L302,91.43a1.85,1.85,0,0,0-1.7,0h0c-.84-1.27.93-1.63,1.65-1.37.52.19,5,2.13,5.24,2.7a1.88,1.88,0,0,1-.12,1.35Z"/></g><g id="SHIRT"><path class="cls-12" d="M289.55,126.09c.2-1.09-2-2.09-4.9-2.45-2.55-.31-5.08.11-5.91.93l5.45-18.38c1-3.39,5.17-5.81,9.93-5.81h22.26c3.61,0,6.87,1.6,8.25,4l11.23,20.79c-.62-1-3.17-1.3-5.82-.65s-4.75,2.1-4.28,3.18l-9.18-14.62-.3,5,2.43,9.59s.29,4.81-8.76,5c-9.6.21-14.55-4.79-14.55-4.79L291.11,132V120.46Z"/><path class="cls-12" d="M300.38,98.2h8.15a1.1,1.1,0,0,1,.93.42l1.19,1.76H298.07l1.41-1.8A1.13,1.13,0,0,1,300.38,98.2Z"/><path class="cls-20" d="M325.53,127.84c-.49-1.15,1.51-2.66,4.4-3.37s5.5-.37,6.16.69l-1.58-2.85c-.67-1.09-3.3-1.52-6.18-.81s-5.17,2.28-4.67,3.46Z"/><path class="cls-21" d="M288.5,101.76s5.19.5,6.19,5.32h22.39"/><line class="cls-21" x1="289.81" y1="125.78" x2="294.7" y2="107.07"/><line class="cls-21" x1="316.59" y1="113.65" x2="317.58" y2="106.09"/><path class="cls-20" d="M290.39,123.92l-.72,2.23c.29-1.11-2.06-2.14-5-2.51s-5.68.22-6.14,1.26l.73-2.39c.32-1.11,3.25-1.72,6.22-1.35S290.7,122.81,290.39,123.92Z"/><line class="cls-8" x1="310.51" y1="100.28" x2="298.07" y2="100.28"/></g></g><g id="SEAT"><path class="cls-22" d="M170.2,147.5H138.89c3.41,0,6.47-1.56,7.64-3.9l7.11-14.42,7.43,14.09c1.17,2.34,4.22,3.9,7.64,3.9h1.19Z"/><path class="cls-9" d="M252.25,147.16H168.71c-3.42,0-6.47-1.55-7.64-3.89l-7.2-14.35h70.74a4,4,0,0,1,3.6,1.83l6.28,12.52a6,6,0,0,0,1.9,2.16,9.51,9.51,0,0,0,3.47.64h10.88c.83,0,1.5.49,1.51,1.09Z"/><path class="cls-9" d="M153.45,128.9l-7.4,14.76c-1.05,2.1-3.79,3.5-6.86,3.5H129.11c0-.6.68-1.09,1.51-1.09h7.07c3.07,0,5.82-1.39,6.87-3.5l6.15-12.27a3,3,0,0,1,2.74-1.4Z"/><line class="cls-23" x1="252.03" y1="147.5" x2="167.41" y2="147.5"/><path class="cls-23" d="M205.75,147.5c-3.42,0-6.47-1.56-7.64-3.9l-7.19-14.35"/><path class="cls-23" d="M224.27,147.5c-3.41,0-6.47-1.56-7.64-3.9l-7.19-14.35"/><path class="cls-23" d="M187.23,147.5c-3.42,0-6.47-1.56-7.64-3.9l-7.2-14.35"/><path class="cls-24" d="M137.22,163c0-8.29,7.28-15,16.27-15s16.27,6.72,16.27,15"/><path class="cls-24" d="M216.59,163c0-8.29,7.28-15,16.27-15s16.28,6.72,16.28,15"/></g><g id="WOMAN"><path id="RIGHT_HAND" data-name="RIGHT HAND" class="cls-17" d="M188.6,135.82l-5.12.86-.69-2.35,1-.76a1.58,1.58,0,0,0,.47-2.25l-1.67-2.4h2.81Z"/><g id="T-SHIRT"><path class="cls-12" d="M180.5,124.48a4.22,4.22,0,0,1,3.79,1.9l1.16,2.53H182.6l1.67,2.4a1.56,1.56,0,0,1-.47,2.25l-1,.76.69,2.35-15.41,2.47L162,129h-.14l-.19-1.06c-.3-1.66,1.3-3.17,3.56-3.39l.48,0Z"/><path class="cls-8" d="M183.8,133.57a1.58,1.58,0,0,0,.47-2.25l-2.66-3.81"/></g><g id="LEGS-2"><g id="PANTS"><path class="cls-15" d="M208.62,158.7H197.9l-1-2.15-8.86-19.63c-.32-.7.68-1.42,1.69-1.42l4.27-.1c2.47,0,4.67,1.15,5.45,2.86l8.18,18.29Z"/><path class="cls-15" d="M195,140.7l-7.91,15.85L186,158.7H175.25l1-2.15,4.63-9.83H175c-3.68,0-9.56-2-7-7.67l21.76-3.63c3,0,5.45,1.78,5.45,4A3,3,0,0,1,195,140.7Z"/><line class="cls-8" x1="181.84" y1="144.08" x2="180.11" y2="147.79"/><path class="cls-8" d="M186.09,159.17l9-18.7c1-2.07-.5-4.33-3.34-5.06a7.21,7.21,0,0,0-1.8-.22h0"/></g><g id="LEGS-3"><polygon class="cls-17" points="187.07 156.55 186 158.7 175.25 158.7 176.26 156.55 187.07 156.55"/><polygon class="cls-17" points="208.62 158.7 197.89 158.7 196.93 156.55 207.66 156.55 208.62 158.7"/></g><g id="SHOES-2"><path class="cls-12" d="M190.54,163.25h-9.23a1,1,0,0,1-.52-.14l-1.46-.89a.39.39,0,0,0-.43,0,.24.24,0,0,0-.06.09l-.24.7a.39.39,0,0,1-.38.21H174.5c-.21,0-.39-.12-.39-.27v-.06l1.14-4.22h10.8Z"/><path class="cls-12" d="M213.4,163.25h-9.23a1,1,0,0,1-.52-.14l-1.46-.89a.39.39,0,0,0-.43,0l-.07.09-.23.7a.39.39,0,0,1-.38.21h-4c-.21,0-.39-.12-.39-.27v-.06l1.14-4.22h10.8Z"/></g></g><g id="HEAD-2"><path id="HAIR-2" class="cls-15" d="M177.4,124.24a5.25,5.25,0,0,1-4.17-.4h0c-3.12,1.18-6.64.64-7.86-1.08s.32-4.06,3.43-5.24a10.57,10.57,0,0,1,2.89-.64c-.27-.61.2-1.27,1-1.46a1.77,1.77,0,0,1,2,.75.92.92,0,0,1,.07.36,1,1,0,0,1-.17.53,5.8,5.8,0,0,1,4,2.31C180,121.3,179.43,123.48,177.4,124.24Z"/><g id="NECK-2"><polygon class="cls-17" points="169.12 124.48 171.25 121.03 175.2 121.03 175.2 126.75 169.12 124.48"/><path class="cls-15" d="M175.2,121v2.2a3.1,3.1,0,0,1-3.21-1.51l-.29-.69Z"/></g><g id="HEAD-3"><path class="cls-17" d="M176.78,119.1v1.79c0,.76-.85,1.38-1.9,1.39H174a2.63,2.63,0,0,1-2.32-1.16h-.88c-.69,0-1.24-.43-1.22-.94s.56-.87,1.22-.89h.12a1.45,1.45,0,0,1,.59.12h0l3.25-1.82c1.15,0,2.07.69,2.07,1.52Z"/><g id="FACE-2"><path class="cls-18" d="M171.3,120.34c0-.26-.29-.48-.66-.48"/><path class="cls-18" d="M176.84,119.11a1.73,1.73,0,0,0-1.3.19,1,1,0,0,0-.2,1.31"/><circle class="cls-15" cx="173.89" cy="119.95" r="0.23"/><circle class="cls-15" cx="176" cy="119.95" r="0.23"/><path class="cls-18" d="M175.39,121.35s-.72.14-.94-.28"/><path class="cls-18" d="M172.85,119.28a2.51,2.51,0,0,1,1.44-.25"/></g></g></g><g id="LEFT_HAND" data-name="LEFT HAND"><path class="cls-17" d="M194.42,135.67c0,.27-.31.5-.69.5h-8.32l-13.68,3c-2.72.62-5.61-.48-6.47-2.46v0L162,129l8.71,0,2,4.24,13.5-.12a12.26,12.26,0,0,1,4.19.83l3.73,1.37a.5.5,0,0,1,.38.44Z"/><line class="cls-18" x1="171.49" y1="133.26" x2="175.35" y2="133.29"/><path class="cls-18" d="M184.33,135.37c0,.54.6,1,1.35,1h0"/><path class="cls-18" d="M189.82,134.77l2.79.83a.63.63,0,0,1,.51.56"/><path class="cls-18" d="M187.84,135l2.18.65a.63.63,0,0,1,.51.56"/></g></g><g id="SIGNAGE"><path class="cls-2" d="M215.09,69.85H144a2.48,2.48,0,0,1-2.2-1.09l-15-27.64c-.48-.88.11-1.88,1.33-2.23a3.1,3.1,0,0,1,.87-.12h71.07a2.46,2.46,0,0,1,2.19,1.09l15,27.63c.48.89-.12,1.89-1.33,2.24A3.08,3.08,0,0,1,215.09,69.85Z"/><line class="cls-7" x1="159.96" y1="69.55" x2="143.37" y2="38.99"/><path class="cls-25" d="M127.61,37.16h74.28a2.08,2.08,0,0,1,1.85.91l16.38,30.17"/><line class="cls-25" x1="165.93" y1="37.16" x2="165.93" y2="10.75"/><line class="cls-7" x1="131.32" y1="49.08" x2="207.03" y2="49.08"/><line class="cls-7" x1="136.91" y1="59.42" x2="212.74" y2="59.42"/><line class="cls-26" x1="141.17" y1="44.25" x2="134.23" y2="44.25"/><line class="cls-26" x1="179.09" y1="42.61" x2="150.63" y2="42.61"/><line class="cls-26" x1="184.25" y1="52.26" x2="155.79" y2="52.26"/><line class="cls-26" x1="185.42" y1="54.72" x2="156.96" y2="54.72"/><line class="cls-26" x1="195.67" y1="62.49" x2="160.72" y2="62.49"/><line class="cls-26" x1="190.09" y1="64.95" x2="161.89" y2="64.95"/><line class="cls-26" x1="189.81" y1="45.07" x2="151.93" y2="45.07"/><polyline class="cls-26" points="137.55 46.23 133.6 44.19 136.56 42.14"/><line class="cls-26" x1="146.36" y1="54.37" x2="139.41" y2="54.37"/><polyline class="cls-26" points="142.74 56.36 138.78 54.31 141.75 52.26"/><line class="cls-26" x1="151.57" y1="64.6" x2="144.63" y2="64.6"/><polyline class="cls-26" points="147.95 66.58 144 64.54 146.96 62.49"/><line class="cls-26" x1="194.86" y1="42.61" x2="198.61" y2="42.61"/><line class="cls-26" x1="196.16" y1="45.07" x2="199.91" y2="45.07"/><line class="cls-26" x1="199.13" y1="52.26" x2="202.87" y2="52.26"/><line class="cls-26" x1="200.43" y1="54.72" x2="204.17" y2="54.72"/><line class="cls-26" x1="203.91" y1="62.49" x2="207.66" y2="62.49"/><line class="cls-26" x1="205.21" y1="64.95" x2="208.95" y2="64.95"/><path class="cls-2" d="M266.18,69.94h71.07a2.45,2.45,0,0,0,2.19-1.09l15-27.63c.48-.89-.11-1.89-1.33-2.24a3.1,3.1,0,0,0-.87-.12H281.18A2.45,2.45,0,0,0,279,40L264,67.59c-.48.88.11,1.88,1.33,2.23A3.1,3.1,0,0,0,266.18,69.94Z"/><line class="cls-7" x1="321.3" y1="69.65" x2="337.89" y2="39.09"/><path class="cls-25" d="M353.65,37.25H279.37a2.09,2.09,0,0,0-1.85.92L261.14,68.33"/><line class="cls-25" x1="315.33" y1="37.25" x2="315.33" y2="10.09"/><line class="cls-7" x1="349.94" y1="49.17" x2="274.24" y2="49.17"/><line class="cls-7" x1="344.35" y1="59.52" x2="268.52" y2="59.52"/><line class="cls-27" x1="340.09" y1="44.34" x2="347.04" y2="44.34"/><line class="cls-27" x1="326.58" y1="42.71" x2="330.63" y2="42.71"/><line class="cls-27" x1="277.54" y1="52.36" x2="313.91" y2="52.36"/><line class="cls-27" x1="276.37" y1="54.82" x2="292.71" y2="54.82"/><line class="cls-27" x1="271.57" y1="62.58" x2="306.52" y2="62.58"/><line class="cls-27" x1="270.66" y1="65.04" x2="298.86" y2="65.04"/><line class="cls-27" x1="281.22" y1="45.16" x2="313.91" y2="45.16"/><polyline class="cls-28" points="343.71 46.33 347.66 44.28 344.7 42.23"/><line class="cls-27" x1="334.9" y1="54.47" x2="341.85" y2="54.47"/><polyline class="cls-28" points="338.52 56.45 342.48 54.4 339.51 52.35"/><line class="cls-27" x1="329.69" y1="64.7" x2="336.63" y2="64.7"/><polyline class="cls-28" points="333.31 66.68 337.26 64.63 334.3 62.58"/><line class="cls-27" x1="319.84" y1="42.71" x2="282.65" y2="42.71"/><line class="cls-27" x1="329.2" y1="45.16" x2="325.59" y2="45.16"/><line class="cls-27" x1="325.47" y1="52.36" x2="321.73" y2="52.36"/><line class="cls-27" x1="324.17" y1="54.82" x2="320.43" y2="54.82"/><line class="cls-27" x1="320.54" y1="62.58" x2="316.79" y2="62.58"/><line class="cls-27" x1="319.24" y1="65.04" x2="315.49" y2="65.04"/></g></g></g></g><g id="Calque_22" data-name="Calque 22"><path class="cls-29" d="M601,106.11c0-3.25,1.4-3.71,4.64-1.86,5.57,3.25,11.14,6,11.14,6,0-1.86,1.86-3.25,5.11-2.32a56.9,56.9,0,0,0,6.49,1.39s-1.85-4.18-2.78-6c-1.39-3.25,0-5.11,1.39-5.57,0,0-1.86-1.4-3.25-2.32-2.78-1.86-2.32-4.18.47-5.11,3.71-1.85,8.81-3.71,8.81-3.71a4.62,4.62,0,0,1-1.39-6.5c1.86-2.78,5.11-7,5.11-7H628c-3.25,0-4.18-2.78-4.18-4.64,0,0-5.1,3.71-8.81,6-3.25,2.32-6,0-5.57-3.71.92-5.57,1.39-12.06,1.39-12.06-1.86,1.85-5.11,1.39-7-1.4-2.32-4.64-4.64-10.2-4.64-10.2s-2.32,5.56-4.64,10.2a4.44,4.44,0,0,1-6.5,1.86s.46,6.5,1.39,12.07c.47,3.24-2.32,5.56-5.57,3.24-3.71-2.32-9.28-6-9.28-6a4.45,4.45,0,0,1-4.17,4.64H561.6s3.25,4.18,5.1,7a4.75,4.75,0,0,1-1.39,6.5,79.33,79.33,0,0,0,8.82,3.71c2.78,1.39,3.71,3.25.46,5.11a24,24,0,0,1-3.25,2.32c1.86.46,3.25,2.32,1.86,5.57-.93,1.85-2.78,6-2.78,6a55,55,0,0,1,6.49-1.39c3.25-.93,4.64.92,5.11,2.32,0,0,5.57-3.25,11.13-6,2.79-1.85,4.65-.92,4.65,1.86V114c0,4.64-.93,9.28-2.32,12.06C574.59,123.74,557,107,557,84.76c0-22.74,19-41.3,42.69-41.3S642.34,62,642.34,84.76c0,21.35-16.7,39-38.05,41.3v5.57c25.06-2.32,44.55-22.27,44.55-46.87,0-26.45-22.27-47.33-49.65-47.33C572.27,37.43,550,58.31,550,84.3c0,22.74,17.17,41.76,39.91,45.94,3.71.93,6,1.39,8.35,3.71,2.32-4.64,2.78-13.92,2.78-19Z"/><path class="cls-30" d="M544.63,171.11V156.55h7.15c3.77,0,5.52,1.62,5.66,3.64a3.46,3.46,0,0,1-.81,2.56,7.28,7.28,0,0,1-2.16,1.62l5.39,6.88H556l-4.85-6.2h-3.23v6.06Zm3.24-8h1.48c3.91,0,4.72-.68,4.72-2.56s-1.75-2.16-4.32-2.16h-1.88Z"/><path class="cls-30" d="M512.69,171.11,519,156.55h3.91l6.34,14.56h-3.91l-1.75-3.91h-6.74l-1.76,3.91Zm5-5.8h5l-2.56-5.79Z"/><rect class="cls-30" x="533.71" y="156.55" width="3.37" height="14.56"/><path class="cls-30" d="M584.13,170.57a15.84,15.84,0,0,1-6.07.94,10.3,10.3,0,0,1-6.74-2,6.94,6.94,0,0,1-2.43-5.66,6.78,6.78,0,0,1,2.43-5.66c1.62-1.35,3.91-2,7-2a28.67,28.67,0,0,1,5.8.54v2.42a19.87,19.87,0,0,0-5.67-.94,6.21,6.21,0,0,0-4.31,1.48,5.87,5.87,0,0,0-1.48,4.18,5.59,5.59,0,0,0,1.62,4.18,6.54,6.54,0,0,0,4.44,1.48,15.28,15.28,0,0,0,5.4-1.08Z"/><path class="cls-30" d="M588.3,171.11l6.34-14.56h3.91l6.33,14.56H601l-1.75-3.91h-6.74l-1.75,3.91Zm5.13-5.8h5L596,159.52Z"/><path class="cls-30" d="M630.49,171.11l6.34-14.56h3.91l6.33,14.56h-3.91l-1.75-3.91h-6.74l-1.75,3.91Zm5-5.8h5l-2.56-5.79Z"/><path class="cls-30" d="M677.94,159.52l2.56,5.79h-5Zm-1.08-3-6.33,14.56H673l1.75-3.91h6.74l1.76,3.91h3.9l-6.33-14.56Z"/><polygon class="cls-30" points="609.74 171.11 609.74 156.55 613.64 156.55 622.81 166.93 622.81 156.55 625.64 156.55 625.64 171.11 622 171.11 612.57 160.19 612.57 171.11 609.74 171.11"/><path class="cls-30" d="M651.79,171.11V156.55h7a9,9,0,0,1,5.79,1.76,6.58,6.58,0,0,1,2,5.12c0,2.42-.68,4.31-2.16,5.52a8.32,8.32,0,0,1-5.93,2h-6.74Zm3.37-2h2.56a5.45,5.45,0,0,0,4-1.35,5.22,5.22,0,0,0,1.35-4,6,6,0,0,0-1.08-3.51,4.12,4.12,0,0,0-1.75-1.35,8.42,8.42,0,0,0-3-.4h-2v10.65Z"/></g><g id="border"><rect class="cls-31" x="0.5" y="0.5" width="730" height="193"/></g></g></svg>