<svg xmlns="http://www.w3.org/2000/svg" xmlns:xlink="http://www.w3.org/1999/xlink" viewBox="0 0 748.27 134.41"><defs><style>.cls-1,.cls-10,.cls-16,.cls-17,.cls-25,.cls-30,.cls-31{fill:none;}.cls-1{stroke:#003f0d;}.cls-1,.cls-10,.cls-11,.cls-16,.cls-17,.cls-18,.cls-21,.cls-22,.cls-25,.cls-30,.cls-31,.cls-32{stroke-miterlimit:10;}.cls-1,.cls-11,.cls-16,.cls-21,.cls-22{stroke-width:5px;}.cls-2,.cls-41{fill:#003f0d;}.cls-3{fill:#185c37;}.cls-4{fill:#33c481;}.cls-5{fill:#21a366;}.cls-6{opacity:0.1;}.cls-6,.cls-7{isolation:isolate;}.cls-7{opacity:0.2;}.cls-8{fill:url(#Dégradé_sans_nom_22);}.cls-11,.cls-22,.cls-32,.cls-33,.cls-9{fill:#fff;}.cls-10,.cls-18{stroke:#6562cf;}.cls-10,.cls-18,.cls-32{stroke-width:6px;}.cls-11,.cls-16,.cls-32{stroke:#ffb000;}.cls-12{fill:#b65a18;}.cls-13{fill:#3f4d79;}.cls-14{fill:#c36f0b;}.cls-15{fill:#dbdaff;}.cls-17{stroke:#000;}.cls-18,.cls-19{fill:#eaeeff;}.cls-20{fill:#c7bfff;}.cls-21{fill:#f0e1d4;}.cls-21,.cls-22{stroke:#d8baa3;}.cls-21,.cls-22,.cls-25{stroke-linecap:round;}.cls-23{fill:#ffcfc9;}.cls-24{fill:#ffb000;}.cls-25,.cls-31{stroke:#fff;stroke-width:4px;}.cls-26{fill:#e69900;}.cls-27{fill:#fab6ad;}.cls-28{fill:#3f4d90;}.cls-29{fill:#722d54;}.cls-30{stroke:#722d54;stroke-width:3px;}.cls-33{font-size:32px;letter-spacing:0em;}.cls-33,.cls-41{font-family:SegoeUI-Bold, Segoe UI;font-weight:700;}.cls-34{letter-spacing:0em;}.cls-35{letter-spacing:0em;}.cls-36{letter-spacing:-0.02em;}.cls-37{letter-spacing:0.02em;}.cls-38{letter-spacing:0em;}.cls-39{letter-spacing:0em;}.cls-40{letter-spacing:0em;}.cls-41{font-size:24px;letter-spacing:0em;}.cls-42{letter-spacing:0em;}.cls-43{letter-spacing:-0.08em;}</style><linearGradient id="Dégradé_sans_nom_22" x1="21.04" y1="-2412.9" x2="60.44" y2="-2481.15" gradientTransform="matrix(1, 0, 0, -1, 0, -2379.89)" gradientUnits="userSpaceOnUse"><stop offset="0" stop-color="#18884f"/><stop offset="0.5" stop-color="#117e43"/><stop offset="1" stop-color="#0b6631"/></linearGradient></defs><g id="Calque_2" data-name="Calque 2"><g id="background-2"><rect class="cls-1" x="2.5" y="2.5" width="743.27" height="129.41"/><rect class="cls-2" x="0.77" y="1.91" width="315.27" height="129.91"/></g><g id="Calque_13" data-name="Calque 13"><path class="cls-3" d="M124.15,119H56.65a5.09,5.09,0,0,1-5.11-5.11V84.4L77.45,71.54,109.78,84.4h14.37a5.08,5.08,0,0,1,5.1,5.1v24.39A5.09,5.09,0,0,1,124.15,119Z"/><path class="cls-4" d="M90.3,50,60.05,60.76,25.64,50V20.49a5.09,5.09,0,0,1,5.11-5.1H85.39a5.08,5.08,0,0,1,5.1,5.1L90.3,50Z"/><path class="cls-5" d="M25.64,50h79a5.09,5.09,0,0,1,5.11,5.1v29.5h-79a5.09,5.09,0,0,1-5.11-5.11Z"/><path class="cls-6" d="M51.54,103.87H68a4.9,4.9,0,0,0,4.92-4.16V42.05A5.05,5.05,0,0,0,68,36.94H25.64V79.29a5.09,5.09,0,0,0,5.11,5.11H51.54Z"/><path class="cls-7" d="M68,101.79a7.18,7.18,0,0,0,7.19-7.18V42.05A7.19,7.19,0,0,0,68,34.86H25.64V79.48a5.09,5.09,0,0,0,5.11,5.11H51.54v17.2Z"/><path class="cls-7" d="M68,99.52a5,5,0,0,0,5.11-4.91V42.05a5.05,5.05,0,0,0-4.92-5.11H25.64V79.29a5.09,5.09,0,0,0,5.11,5.11H51.54V99.52Z"/><path class="cls-6" d="M65.91,99.52A5,5,0,0,0,71,94.61V42.05a5.05,5.05,0,0,0-4.92-5.11H25.64V79.29a5.09,5.09,0,0,0,5.11,5.11H51.54V99.52Z"/><path class="cls-8" d="M15.62,36.94H65.91A5.09,5.09,0,0,1,71,42.05V92.34a5.09,5.09,0,0,1-5.11,5.1H15.62a5.08,5.08,0,0,1-5.1-5.1V42.05A5.09,5.09,0,0,1,15.62,36.94Z"/><path class="cls-9" d="M41.71,50.37A13.38,13.38,0,0,1,50.6,53a10.11,10.11,0,0,1,3,7.75,12.8,12.8,0,0,1-1.51,5.86,12.22,12.22,0,0,1-4.35,4,13.34,13.34,0,0,1-6.61,1.33H34.91V83.83H28.48V50.37ZM35.1,66.81h5.48a6.87,6.87,0,0,0,4.91-1.51A6,6,0,0,0,47.2,61c0-3.78-2.08-5.48-6.24-5.48H35.29Z"/></g><g id="Calque_18" data-name="Calque 18"><g id="Layer_2" data-name="Layer 2"><g id="Слой_1" data-name="Слой 1"><g id="_3" data-name=" 3"><g id="CHAIR"><polyline class="cls-10" points="602.25 86.84 602.25 101.22 589.08 123.24"/><polyline class="cls-10" points="607.23 86.84 607.23 101.22 620.4 123.24"/><path class="cls-11" d="M592.9,82h23.68A2.45,2.45,0,0,1,619,84.4h0a2.45,2.45,0,0,1-2.45,2.45H592.9a2.45,2.45,0,0,1-2.45-2.45h0A2.45,2.45,0,0,1,592.9,82Z"/><line class="cls-10" x1="604.74" y1="87.07" x2="604.74" y2="123.27"/></g><g id="WOMAN"><g id="RIGHT_HAND" data-name="RIGHT HAND"><path class="cls-12" d="M619,47.15s-.5,4.87-.13,4.9a92.6,92.6,0,0,1,10.63,1.18,29,29,0,0,1,4.77,1.69,5.1,5.1,0,0,1,.83,2.43c0,.21-.27,1.32-.27,1.32a.77.77,0,0,1-.78-.82c0-1-.93-1.19-1.56-1.38-.26-.08-.89.05-1,.44s.92.71,1.11,1a1,1,0,0,1,.07.88l-1.81-.69a8.67,8.67,0,0,1-2.28-2.46s-12.85,4-16.05,2c-1.2-.76-1-3.19-.48-6.91Z"/></g><path id="SKIRT" class="cls-13" d="M599.7,84.58c12.38,0,13.88.12,20.89-.2a15.19,15.19,0,0,1,.74-6.29c3.28-8.22,7.49-6.75,7.49-6.75-3.08-1.76-7.23-3.36-16.75-3.94a22.1,22.1,0,0,1-1.2-6.29l-15.75,0a57,57,0,0,0-4.21,11.58C588.87,80.19,594.73,84.57,599.7,84.58Z"/><g id="LEGS"><g id="LOWER_LEG" data-name="LOWER LEG"><path id="LEG" class="cls-12" d="M632.87,87.54c.55-3-.09-7.94-4.56-7.2s-3.67,3.59-3.67,5.48c0,5.44-1.83,8.18-2.43,12.86-.84,6.46.5,14.27,1.71,19.41l-1,2.19s1.71,1.6,5.67,1.86,1.14-1.46,1.14-1.46c-1.94-1.9-3-3.27-2.5-6.89C627.6,111.19,632,92.09,632.87,87.54Z"/><path id="SHOE" class="cls-13" d="M623.33,119.31s-2,4,.54,4l9.6,0s.33-2-2.47-2.41l-1.29-.18s1,1.24-1.27,1C624.6,121.35,624.56,118.9,623.33,119.31Z"/></g><g id="UPPER_LEG" data-name="UPPER LEG"><path id="LEG-2" class="cls-14" d="M626.28,71.63c4.07-2,4.59,3.17,4,5.57-.26,1-3,8.87-3.82,11.53s-7.12,18.24-7.77,27.5c0,.1-.95,2.49-3.21-4.39-.85-2.55,1.4-2.27,1.27-3.39-.61-5.41-1.49-16.9-.24-23.13C617,82.81,620.23,74.54,626.28,71.63Z"/><path id="SHOE-2" class="cls-13" d="M616.65,108.78s-4.25.4-3,2.63c.53,1,5.08,8.84,5.08,8.84s1.75-.71.71-3.34l-.69-1.68s-.62,1.47-1.49-.67C616,111.31,617.5,110.52,616.65,108.78Z"/></g></g><path id="BLOUSE" class="cls-15" d="M612.5,60.24a89.74,89.74,0,0,1,3-11.28l5.25-2.67s.11-6.53-3.28-9.63c-2.24-2-6.83-3.56-6.83-3.56l-8.82-.47A17.7,17.7,0,0,0,592,36.25a21.4,21.4,0,0,0-5.46,6.35,17.83,17.83,0,0,1,8.61,5.47l-2.54,12.17s2.93,1.63,9.75,1.81C610.69,62.26,612.5,60.24,612.5,60.24Z"/><g id="LEFT_HAND" data-name="LEFT HAND"><path class="cls-14" d="M616.7,53.29c0,1-2.58.25-2.6.64a.49.49,0,0,0,.09.39.62.62,0,0,1,0,.7c-.22.43.51.54.29,1.22s.12.6.16,1.3-3.3,1.49-4.3,1.1a.68.68,0,0,1-.26-.18c-1.4,0-21.5.72-23.09-1.57-1.82-2.62,1.9-13.45,1.9-13.45a19.25,19.25,0,0,1,6.5,4.63l-.91,3.83a62.24,62.24,0,0,1,15,3.2,5.65,5.65,0,0,1,.26-1.38c.08-.33.46-1,1.8-1S616.71,52.75,616.7,53.29Z"/><path class="cls-12" d="M588.92,43.44a14.58,14.58,0,0,1,6.5,4.63l-.34,1.44A16.59,16.59,0,0,0,588.17,46Z"/></g><g id="HEAD"><path id="HAIR" class="cls-13" d="M619.72,22.36a2.39,2.39,0,0,0,0,2.23c.08.39,0,2.71-3.25,2.66a1.45,1.45,0,0,0-.26,1.29,1.12,1.12,0,0,0,1.38.76.85.85,0,0,0,.58-1.05.64.64,0,0,0-.8-.44h0a.48.48,0,0,0-.33.59.34.34,0,0,0,.43.24h0a.18.18,0,0,1,.22.13.17.17,0,0,1-.12.22.72.72,0,0,1-.87-.49.83.83,0,0,1,.57-1h0a1,1,0,0,1,1.24.68,1.2,1.2,0,0,1-.82,1.49,1.4,1.4,0,0,1-.41.06,1.46,1.46,0,0,1-1.4-1.07,1.76,1.76,0,0,1,.18-1.4c-3.67-.23-14.24,5.4-14.24,5.4s-2.28.66-3-.8c0,0-3.6.18-4.33-2a2.85,2.85,0,0,1,0-2,1.55,1.55,0,0,1-.64.2h-.09a1.48,1.48,0,0,1-1.46-1.38,1.21,1.21,0,0,1,1.14-1.27,1,1,0,0,1,1.06.94.84.84,0,0,1-.79.88.71.71,0,0,1-.75-.66.18.18,0,1,1,.36,0,.35.35,0,0,0,.37.33h0a.48.48,0,0,0,.45-.51.65.65,0,0,0-.68-.61h0a.85.85,0,0,0-.8.9h0a1.11,1.11,0,0,0,1.17,1,1.81,1.81,0,0,0,1.34-1.07,4.18,4.18,0,0,1-1-3.46,3,3,0,0,1,2.23-2.16s-1.6-3.37,1.42-5a4.29,4.29,0,0,1,2.16-.56,1.57,1.57,0,0,1-.19-.26,1,1,0,0,1,.26-1.27.74.74,0,0,1,.56-.11.8.8,0,0,1,.48.34.67.67,0,0,1-.19.9.18.18,0,0,1-.25,0,.19.19,0,0,1,.05-.25.31.31,0,0,0,.08-.42.39.39,0,0,0-.25-.18.36.36,0,0,0-.28.06.6.6,0,0,0-.16.79,1,1,0,0,0,1.2.45h0a2.36,2.36,0,0,1,.14-1,1.67,1.67,0,0,1,.39-.56,1.58,1.58,0,0,1,.72-.36,3.29,3.29,0,0,1,1.17,0A2,2,0,0,1,605.08,12a4.32,4.32,0,0,1,3.65.57,3.69,3.69,0,0,1,3.94-1A3.07,3.07,0,0,1,614.94,14a1.27,1.27,0,0,0,.82-.23,1,1,0,0,0,.3-1.24.58.58,0,0,0-.74-.31.35.35,0,0,0-.21.2.37.37,0,0,0,0,.31.31.31,0,0,0,.39.16.17.17,0,0,1,.23.1.17.17,0,0,1-.09.23h0a.66.66,0,0,1-.85-.35.69.69,0,0,1,0-.58.72.72,0,0,1,.41-.41.94.94,0,0,1,1.19.5,1.31,1.31,0,0,1-.41,1.68l-.06.05a1.57,1.57,0,0,1,.9.38,1.09,1.09,0,0,1,0,1.28A2.36,2.36,0,0,1,618.46,17c.4,1-.24,1.46.49,2.14A2.8,2.8,0,0,1,619.72,22.36Z"/><path id="HOOP" class="cls-9" d="M607.44,26.64s0-6.84,5.45-6.74S616,27.23,616,27.23Z"/><g id="NECK"><path class="cls-14" d="M607.45,26.41s-1.06,3.4-5.68,6.22c0,0,5.2,2.25,9.43.61Z"/><path class="cls-12" d="M611.2,33.24a9.3,9.3,0,0,1-3,.59c-2.3-2-1.12-6.49-.83-7.19a1.14,1.14,0,0,0,.09-.19Z"/></g><path id="HEAD-2" class="cls-14" d="M607.44,26.64c-.36.87,1.58,6.6,3.76,6.6,2.55,0,7.36-8,3.76-9.93S607.79,25.81,607.44,26.64Z"/></g></g><g id="TABLET"><g id="TABLE"><path class="cls-9" d="M603.42,58.66h41.83V61H603.42a1.17,1.17,0,0,1-1.17-1.16h0a1.17,1.17,0,0,1,1.17-1.17Z"/><path class="cls-16" d="M645.25,61H603.42a1.18,1.18,0,0,1-1.17-1.17h0a1.17,1.17,0,0,1,1.17-1.17h41.83"/></g><g id="TABLET-2"><path class="cls-17" d="M631.48,58.58H611.32a.64.64,0,0,1-.64-.64.67.67,0,0,1,.06-.28l6.2-13.08a1.86,1.86,0,0,1,1.67-1h20.16a.64.64,0,0,1,.64.64.67.67,0,0,1-.06.28l-6.21,13.08A1.83,1.83,0,0,1,631.48,58.58Z"/><path class="cls-18" d="M631.55,58.58H611.39a.64.64,0,0,1-.64-.64.67.67,0,0,1,.06-.28L617,44.58a1.85,1.85,0,0,1,1.67-1h20.16a.64.64,0,0,1,.64.64.67.67,0,0,1-.06.28l-6.21,13.08A1.83,1.83,0,0,1,631.55,58.58Z"/><path class="cls-9" d="M611.56,58.25l6.08-12.82a1.81,1.81,0,0,1,1.63-1h18.78a.63.63,0,0,1,.63.63.67.67,0,0,1-.06.28l-5.76,12.15a1.16,1.16,0,0,1-1.05.67Z"/><polygon class="cls-19" points="620.99 51.17 620.99 58.25 625.11 58.25 620.99 51.17"/><polygon class="cls-17" points="636.03 58.55 625.46 58.55 621.34 51.46 631.91 51.46 636.03 58.55"/><polygon class="cls-20" points="635.33 58.55 625.51 58.55 621.39 51.46 631.21 51.46 635.33 58.55"/><polygon class="cls-9" points="636.31 58.55 626.48 58.55 622.37 51.46 632.19 51.46 636.31 58.55"/><polygon class="cls-10" points="636.03 58.58 625.46 58.58 621.34 51.5 631.91 51.5 636.03 58.58"/></g></g></g></g></g></g><g id="Calque_14" data-name="Calque 14"><g id="Layer_2-2" data-name="Layer 2"><g id="Слой_1-2" data-name="Слой 1"><g id="_2" data-name=" 2"><g id="CHAIR-2" data-name="CHAIR"><rect class="cls-21" x="709.17" y="96.06" width="2.28" height="14.89"/><path class="cls-22" d="M708,85.05h4.56V95.5a1.08,1.08,0,0,1-1.08,1.08h-2.4A1.08,1.08,0,0,1,708,95.5V85.05Z"/><path class="cls-21" d="M718.15,113.5v3.41H716v-1.38a2.55,2.55,0,0,0-2.54-2.55h-6.21a2.55,2.55,0,0,0-2.55,2.55v1.38h-2.18V113.5A2.55,2.55,0,0,1,705,111h10.57A2.55,2.55,0,0,1,718.15,113.5Z"/><circle class="cls-22" cx="717.05" cy="117.91" r="2.26"/><circle class="cls-22" cx="703.49" cy="117.91" r="2.26"/><polygon class="cls-21" points="715.59 79.82 721.22 63.29 725.24 63.29 719.61 79.82 715.59 79.82"/><polygon class="cls-22" points="714.49 79.82 720.11 63.29 724.13 63.29 718.51 79.82 714.49 79.82"/><path class="cls-22" d="M728.14,81.71c0,.33-.49.63-1.37.91-2.59.82-8.62,1.4-15.64,1.4-6.46,0-12.08-.49-15-1.21-.24-.06-.47-.12-.68-.19-.88-.28-1.36-.58-1.36-.91s.34-.53,1-.77c2.35-.9,8.64-1.53,16-1.53C720.52,79.41,728.14,80.44,728.14,81.71Z"/><path class="cls-21" d="M728.14,81.71v1.82c0,1.27-7.62,2.3-17,2.3-6.46,0-12.08-.48-15-1.2-1.3-.33-2-.7-2-1.1V81.71c0,.33.49.63,1.37.91.21.07.43.13.68.19,2.88.72,8.5,1.21,15,1.21,7,0,13-.58,15.64-1.4C727.65,82.34,728.14,82,728.14,81.71Z"/><path class="cls-22" d="M736.41,52.88H714.94a1.41,1.41,0,0,0-1.28,1l-5.74,16.83A.91.91,0,0,0,708.6,72h21.19a1.87,1.87,0,0,0,1.67-1.28l5.62-16.53A.91.91,0,0,0,736.41,52.88Z"/></g><g id="LEFT_HAND-2" data-name="LEFT HAND"><path class="cls-23" d="M691.57,68.5l-3.54.55a7.4,7.4,0,0,1-1.73,2.43l-1.51.81a.85.85,0,0,1,0-.78c.13-.23,1-.64.86-1s-.59-.3-.81-.2c-.52.24-1.46.83-1.36,1.71a.69.69,0,0,1-.6.81s-.36-1-.38-1.13a5.67,5.67,0,0,1,.55-2.47,13.15,13.15,0,0,1,3-1.63h0l4.74-2.15Z"/><path class="cls-24" d="M706.82,52.23s.74,10.36-1.58,13-10.16,4.18-13.76,3.36l-.9-3.14c3.56-2.4,8.76-5.56,8.76-5.56s1.72-14.5,4.48-16.31S706.73,50.19,706.82,52.23Z"/><path class="cls-25" d="M690.61,65.53a7.07,7.07,0,0,1,.82,3"/><line class="cls-25" x1="690.87" y1="66.06" x2="692.87" y2="64.97"/><line class="cls-25" x1="691.08" y1="66.62" x2="692.35" y2="66.22"/><line class="cls-25" x1="691.29" y1="67.42" x2="693.83" y2="67.02"/><line class="cls-25" x1="691.43" y1="68.04" x2="692.68" y2="68.04"/></g><g id="LEGS-2" data-name="LEGS"><g id="LEFT"><path class="cls-26" d="M700.26,120.41h-9.63s-.14-1.54,1.1-1.76a4.47,4.47,0,0,0,2-1.28s2.41,1.27,3.86-.77a6.79,6.79,0,0,0,1.25-4.18,6.33,6.33,0,0,1,1.82,4A16.14,16.14,0,0,1,700.26,120.41Z"/><path class="cls-27" d="M689.74,78.43c-1.61.22-5.11,3.11-3.14,8.8s9.61,23.48,9.53,25.13c-.09,2.2-2.36,5-2.36,5s2.41,1.27,3.86-.77a6.79,6.79,0,0,0,1.25-4.18s1.25-13.72-.91-24.94C697,82.34,692.63,78,689.74,78.43Z"/></g><g id="RIGHT"><path class="cls-24" d="M707.75,120.41h-9.64s-.13-1.54,1.1-1.76a4.41,4.41,0,0,0,2-1.28s2.42,1.27,3.87-.77a6.87,6.87,0,0,0,1.25-4.18,6.38,6.38,0,0,1,1.82,4A16.14,16.14,0,0,1,707.75,120.41Z"/><path class="cls-23" d="M697.22,78.38c-1.3,1-2.63,3.16-.65,8.85s7.18,23.48,7,25.13-2.37,5-2.37,5,2.42,1.27,3.87-.77a6.87,6.87,0,0,0,1.25-4.18s2.78-18.06,1.72-24.94C707.29,82.31,700.84,75.68,697.22,78.38Z"/></g></g><path id="SKIRT-2" data-name="SKIRT" class="cls-28" d="M720.89,63.45a65.24,65.24,0,0,1,4.27,10.9c1.28,5.18-2,8.62-9.22,8.68-5.83,0-4.7,3.8-4.7,3.8a6.44,6.44,0,0,1-5.67,0c-3.11-1.57-4.69-.76-6.91.1-2.8,1.09-5.32-1-7.49-1.13-3.26-.2-4.15,2.12-7.55.1,0,0-1.23-8.64,3.9-11.94s21.69-6.86,21-10.22Z"/><g id="BLOUSE-2" data-name="BLOUSE"><path id="BLOUSE-2-2" data-name="BLOUSE-2" class="cls-24" d="M703.82,43.58c2-1.37,6.85-3,8.74-4.86l7.84-.38c2.55,2,7.32,4.63,8.4,6.23l-5.29,10.34s-2.31,7.27-2.64,8.74-8.59,1.75-12.56.28c0,0-1.18-6.47-1.56-6.85a4.38,4.38,0,0,1-2-4.29Z"/><path class="cls-25" d="M708.39,63.85s-1.34-6.39-1.72-6.77a4.51,4.51,0,0,1-2-4.29A16.1,16.1,0,0,1,706,49"/></g><g id="RIGHT_HAND-2" data-name="RIGHT HAND"><path class="cls-23" d="M710.24,69.37a1.94,1.94,0,0,1-1,1.42c-1,.45-1.1.51-1.93,1a5.49,5.49,0,0,0-1.41,1.55c-.65.79-1.16-1.59-1-2.08a12.77,12.77,0,0,1,3.59-3.51,9.81,9.81,0,0,1,1.14-.53c1-.4,2.78-1,4.73-1.71l.87,3Z"/><path class="cls-24" d="M714.32,65.46a65.11,65.11,0,0,1,9.54-4.85l-.46-9.44a7.88,7.88,0,0,1,2.33-6c1.44-1.4,3.15-2,4.11,1.66,0,0,3.17,13.65-.08,18.43-2,2.9-11,4.18-14.55,3.36Z"/><path class="cls-25" d="M714.32,65.46a65.11,65.11,0,0,1,9.54-4.85l-.35-5.7"/><path class="cls-25" d="M714.24,65.53a7.37,7.37,0,0,1,.82,3"/><line class="cls-25" x1="714.49" y1="66.06" x2="716.5" y2="64.97"/><line class="cls-25" x1="714.7" y1="66.62" x2="715.97" y2="66.22"/><line class="cls-25" x1="714.91" y1="67.42" x2="717.46" y2="67.02"/><line class="cls-25" x1="715.06" y1="68.04" x2="716.31" y2="68.04"/></g><g id="HEAD-2-2" data-name="HEAD"><g id="HAIR-2" data-name="HAIR"><path class="cls-29" d="M725.81,32.93s-10.41,3.14-19.29,2.72c0,0-3-3.68-1.2-5.31,1.59-1.46,3.71-2.33,2.83-3.49s-1.73-2.88.76-4.27,7-3.54,9.68-2.25c2,1,.9,3.63,2.11,3.67a2.64,2.64,0,0,1,2.71,3.32C722.79,30.35,726.69,28,725.81,32.93Z"/><path class="cls-30" d="M705.41,35.65s-3.44-3.5-1-5.62c1.65-1.4,3.72-2,2.83-3.18s-1.72-2.88.76-4.26,7-3,9.68-2.42"/></g><g id="NECK-2" data-name="NECK"><path class="cls-23" d="M718.51,30s-.42,5.67,1.89,8.31c0,0-2.93,4.44-7.93,4.63s.09-4.25.09-4.25,1.23-1.66,1-5.86Z"/><path class="cls-27" d="M718.48,30.05c-.7,1.84-2.39,5.44-5,5.79a16.52,16.52,0,0,0,.12-3Z"/></g><path id="HEAD-2-3" data-name="HEAD-2" class="cls-23" d="M718.51,30s-1.51,3.84-5.29,3.84c-.66,0-3.19-2.53-3-6.62S714.83,23,714.83,23s-.32,4.28,3.44,4.88c0,0,1-.85,1.35-.1S718.51,30,718.51,30Z"/><path id="HAIR-2-2" data-name="HAIR-2" class="cls-30" d="M714.83,23s-1.42,4.36,2.34,5"/><circle id="EARRING" class="cls-31" cx="719.49" cy="30.5" r="1.1"/><g id="SCARF"><path class="cls-22" d="M720.31,38c.08,0,.26.33.19.37-1,.68-4.38,1.73-6.61,1-2.94-.92-1-1.75-.79-1.61C713.88,38.23,717,38.34,720.31,38Z"/><path class="cls-22" d="M721.52,37.66s1.1-1.66,2.67-1.43A2.56,2.56,0,0,1,721.52,37.66Z"/><path class="cls-22" d="M721.63,37.83s2.91,0,4,2.11A3.89,3.89,0,0,1,721.63,37.83Z"/><circle class="cls-22" cx="720.98" cy="37.91" r="0.59"/></g></g><g id="LAPTOP"><path class="cls-32" d="M704.86,71.79H683.4a1.43,1.43,0,0,1-1.28-.81l-6.53-13.84a.75.75,0,0,1,.35-1,.88.88,0,0,1,.32-.07h21.2a1.83,1.83,0,0,1,1.66,1.06l6.42,13.6a.75.75,0,0,1-.36,1A.71.71,0,0,1,704.86,71.79Z"/><rect class="cls-32" x="681.97" y="71.79" width="35.64" height="1.57" rx="0.71"/></g></g></g></g></g><g id="Calque_16" data-name="Calque 16"><text class="cls-33" transform="translate(142.02 55.16)">Mic<tspan class="cls-34" x="54.98" y="0">r</tspan><tspan class="cls-35" x="67.56" y="0">os</tspan><tspan class="cls-36" x="101.14" y="0">o</tspan><tspan class="cls-37" x="120.18" y="0">f</tspan><tspan class="cls-35" x="133.02" y="0">t </tspan><tspan x="0" y="38.4">P</tspan><tspan class="cls-38" x="19.62" y="38.4">r</tspan><tspan class="cls-39" x="32.2" y="38.4">o</tspan><tspan class="cls-40" x="51.67" y="38.4">ject</tspan></text></g><g id="Calque_17" data-name="Calque 17"><text class="cls-41" transform="translate(332.11 76.73)">O<tspan class="cls-42" x="18.17" y="0">r</tspan><tspan x="27.61" y="0">ganisez l</tspan><tspan class="cls-43" x="124.99" y="0">’</tspan><tspan class="cls-35" x="130" y="0">essentiel</tspan></text></g></g></svg>