<svg xmlns="http://www.w3.org/2000/svg" xmlns:xlink="http://www.w3.org/1999/xlink" viewBox="0 0 750 525"><defs><style>.cls-1,.cls-10,.cls-13,.cls-15,.cls-19,.cls-24,.cls-29,.cls-3,.cls-30{fill:none;}.cls-1{stroke:#003f0d;}.cls-1,.cls-13,.cls-15,.cls-17,.cls-19,.cls-20,.cls-21,.cls-22,.cls-24,.cls-29,.cls-3,.cls-30,.cls-31,.cls-4,.cls-5{stroke-miterlimit:10;}.cls-1,.cls-10,.cls-13,.cls-17,.cls-19,.cls-21,.cls-22,.cls-3,.cls-4,.cls-5{stroke-width:5px;}.cls-2{fill:#003f0d;}.cls-19,.cls-20,.cls-3,.cls-4,.cls-5{stroke:#6562cf;}.cls-13,.cls-16,.cls-17,.cls-21,.cls-22,.cls-24,.cls-3,.cls-4,.cls-5{stroke-linecap:round;}.cls-16,.cls-17,.cls-22,.cls-31,.cls-38,.cls-39,.cls-4,.cls-44{fill:#fff;}.cls-5,.cls-8{fill:#eaeeff;}.cls-6{fill:#f1921b;}.cls-7{fill:#eb7200;}.cls-9{fill:#dbdaff;}.cls-10{stroke:#c7bfff;stroke-linejoin:round;}.cls-11{fill:#3f4d79;}.cls-12{fill:#ffb000;}.cls-13,.cls-16,.cls-17{stroke:#3f4d79;}.cls-14{fill:#3c4564;}.cls-15,.cls-31{stroke:#ffb000;}.cls-15,.cls-24,.cls-30{stroke-width:4px;}.cls-16{stroke-miterlimit:10;stroke-width:5px;}.cls-18{fill:#c0c1ff;}.cls-20{fill:#d1d1ff;}.cls-20,.cls-31{stroke-width:6px;}.cls-21{fill:#f0e1d4;}.cls-21,.cls-22{stroke:#d8baa3;}.cls-23{fill:#ffcfc9;}.cls-24,.cls-30{stroke:#fff;}.cls-25{fill:#e69900;}.cls-26{fill:#fab6ad;}.cls-27{fill:#3f4d90;}.cls-28{fill:#722d54;}.cls-29{stroke:#722d54;stroke-width:3px;}.cls-32{fill:#185c37;}.cls-33{fill:#33c481;}.cls-34{fill:#21a366;}.cls-35{opacity:0.1;}.cls-35,.cls-36{isolation:isolate;}.cls-36{opacity:0.2;}.cls-37{fill:url(#Dégradé_sans_nom_22);}.cls-39{font-size:36px;letter-spacing:0em;}.cls-39,.cls-44{font-family:SegoeUI-Bold, Segoe UI;font-weight:700;}.cls-40{letter-spacing:0em;}.cls-41{letter-spacing:-0.02em;}.cls-42{letter-spacing:0.02em;}.cls-43{letter-spacing:0em;}.cls-44{font-size:24px;letter-spacing:0em;}.cls-45{letter-spacing:0em;}.cls-46{letter-spacing:-0.08em;}.cls-47{letter-spacing:0em;}.cls-48{fill:#fffdfd;}</style><linearGradient id="Dégradé_sans_nom_22" x1="72.41" y1="-1186.27" x2="141.94" y2="-1306.71" gradientTransform="matrix(1, 0, 0, -1, 0, -1077.72)" gradientUnits="userSpaceOnUse"><stop offset="0" stop-color="#18884f"/><stop offset="0.5" stop-color="#117e43"/><stop offset="1" stop-color="#0b6631"/></linearGradient></defs><g id="Calque_2" data-name="Calque 2"><g id="background-project"><rect class="cls-1" x="2.5" y="2.5" width="745" height="520"/><rect class="cls-2" x="0.77" y="0.14" width="316" height="522"/></g><g id="Jean_Pablo" data-name="Jean Pablo"><g id="Layer_2" data-name="Layer 2"><g id="Слой_1" data-name="Слой 1"><g id="_1" data-name=" 1"><g id="CHAIR"><path class="cls-3" d="M374.49,305.51H348a4.84,4.84,0,0,1-4.72-3.78L337.55,276a4.85,4.85,0,0,1,3.67-5.78,4.72,4.72,0,0,1,1.06-.12"/><path class="cls-3" d="M423.27,305.51H396.82a4.84,4.84,0,0,1-4.72-3.78L386.33,276a4.85,4.85,0,0,1,3.67-5.78,4.72,4.72,0,0,1,1.06-.12"/><path class="cls-4" d="M394.32,279.21H349.44a7.23,7.23,0,0,1-7-5.6l-6.47-27.77a6.17,6.17,0,0,1,4.61-7.41,6,6,0,0,1,1.4-.17h44.88a7.23,7.23,0,0,1,7.05,5.6l6.47,27.78a6.19,6.19,0,0,1-4.63,7.41A6.44,6.44,0,0,1,394.32,279.21Z"/><path class="cls-5" d="M352.64,299.11h72a3.2,3.2,0,0,1,3.2,3.2h0a3.2,3.2,0,0,1-3.2,3.2h-72a3.2,3.2,0,0,1-3.2-3.2h0A3.2,3.2,0,0,1,352.64,299.11Z"/><path class="cls-3" d="M344.09,378.35l8.93-66.6a6.42,6.42,0,0,1,6.27-6.24h15.44a6.41,6.41,0,0,1,6.27,6.24l8.94,66.6"/><path class="cls-3" d="M400.85,305.51h15a6.33,6.33,0,0,1,6.09,6.24l8.84,66.6"/></g><g id="MAN"><g id="RIGHT_HAND" data-name="RIGHT HAND"><path class="cls-6" d="M471.61,239.52c1,.64,3.23,5.42,3.27,6s-2.55,4.86-2.55,4.86-1,0-1.22-2.33c-.24-2.79-1.47-3.85-3.24-4.25a1.94,1.94,0,0,0-2.2,1.49c-.1,1.1,2.72,1.82,3.29,2.48a2.77,2.77,0,0,1,.38,2.45s-4.36-1.32-5.2-1.56-4.11-3.28-6.21-6.32a21.59,21.59,0,0,1-2.45,1.56c-5.27,2.83-23.35,9.43-32.72,7.94s-1.89-31.46-1.89-31.46c13.62.63,19.32-1.1,20.36-1.47l-2.11,13.84c5.72-.17,19.8,2.17,19.81,2.17C462.89,235.44,470.21,238.6,471.61,239.52Z"/><path class="cls-7" d="M420.8,220.37h.08c13.62.63,19.33-1.11,20.37-1.47l-.5,3.39s-10.11,4.75-21.35,4.33Z"/></g><g id="T-SHIRT"><path class="cls-8" d="M422.17,258.22c3.23-.23,9.1-37.89,9.1-37.89,7.22.11,16-3.26,16-3.26s-6-19.57-8-23.61-16.83-11-18.58-11.52l-28.8-6.59s-24.59,6.11-32.34,12.37-13.82,32.71-13.82,32.71c14.24,5.74,29,4.9,29,4.9l-5,30.25c-1.63,7.35-6.82,30.67,2.34,42C372,297.57,379.34,261.37,422.17,258.22Z"/><path class="cls-9" d="M403.24,185l-8.62,5.26-10.92-12.7,8.2-4.91a2.1,2.1,0,0,1,2.88.73v0Z"/><path class="cls-9" d="M416.34,186.24l6.06,3.58-.29-7.27-1.5-.61A17.16,17.16,0,0,0,416.34,186.24Z"/><path class="cls-10" d="M374.66,225.33c1.16-3.83,2.33-13.07,2.33-13.07"/><path class="cls-10" d="M394.62,190.29l8.45-4.93s8.11,9.64,8.34,11.33.65,18.9.65,18.9h4.28"/><path class="cls-10" d="M422.24,189.81l-5.74-3.25s-5.21,8.24-5.09,10.13"/><path class="cls-10" d="M375.57,221.52s-18.2.55-28.9-5.15"/></g><g id="LEFT_HAND" data-name="LEFT HAND"><path class="cls-6" d="M430,251.33c0,.87-8.88.55-10.13.55s-9.08.3-10.92,0c-10,.82-54.62,4.07-59.81-3.14-6-8.35-.64-27.25-.64-27.25a73.79,73.79,0,0,0,26.13,3.83l-1.11,7.18c10.7,1.32,30,8.1,36.56,10.47,1.41-.45,6.76-2.07,9.48-1.45,3.13.7,6.9,3.53,7.29,4.31S430,250.47,430,251.33Z"/><path class="cls-7" d="M419.9,251.88c1.25,0,10.12.32,10.12-.55s-2.74-4.7-3.14-5.49-4.15-3.61-7.29-4.32c0,0,3.87,5.38.31,10.36"/><path class="cls-7" d="M348.52,221.5s13.79,4.85,26.14,3.83l-1.11,7.17s-16.47-2.64-25.61-8.61Z"/></g><g id="LEGS"><g id="RIGHT"><g id="SHOES"><path class="cls-11" d="M467.85,379h-30.5c0-.47,0-.91,0-1.34h30.57A6.65,6.65,0,0,1,467.85,379Z"/><path class="cls-12" d="M440.46,365.37c.11,3.33-3.11,5.44-3.11,12.31h30.5a6.84,6.84,0,0,0-5.65-7.1c-6.1-1.32-11.65-3.1-12.2-5.21Z"/><line class="cls-13" x1="450.21" y1="371.59" x2="452.99" y2="367.47"/><line class="cls-13" x1="452.38" y1="372.09" x2="455" y2="368.3"/><line class="cls-13" x1="455.22" y1="372.26" x2="457.34" y2="368.8"/></g><g id="PANT"><path class="cls-14" d="M407.66,260.89s46.55-2.91,57.86,10.39-10.65,60.78-12.87,89.61c0,0-11.13,1.11-15.66,0s-8.46-50.41,2.94-63.94c0,0-43.32,10-60.21-2.6S400.63,261.13,407.66,260.89Z"/></g><path id="LEG" class="cls-6" d="M450,365.37a14.81,14.81,0,0,1-9.53,0l-.9-4.11a90,90,0,0,0,11.33-.22Z"/></g><g id="LEFT"><g id="SHOE"><path class="cls-11" d="M536.77,332.85l-24.2,18.57q-.51-.63-.93-1.23l24.1-18.5A6.68,6.68,0,0,1,536.77,332.85Z"/><path class="cls-12" d="M506.54,338.59c2.11,2.57.84,6.2,5,11.66l24.19-18.57a6.83,6.83,0,0,0-8.8-2.19c-5.65,2.66-11.13,4.63-12.86,3.29Z"/><line class="cls-13" x1="518.12" y1="337.29" x2="517.82" y2="332.49"/><line class="cls-13" x1="519.96" y1="336.12" x2="519.66" y2="331.82"/><line class="cls-13" x1="521.8" y1="334.95" x2="521.5" y2="331.15"/></g><g id="PANT-2"><path class="cls-11" d="M372,295.69c.69,3.75,40.3,12.85,82.45-13.75,0,0,2.77,32.09,45.35,55.37,0,0,9.27-3.34,13.44-10.69,0,0-27.79-32.49-38.48-62.32-4.49-12.53-61-6-69.27-3.41S368.87,279,372,295.69Z"/></g><path id="LEG-2" class="cls-6" d="M514.1,332.78s-1.82,5.62-7.56,5.81l-3.74-2.65a28.94,28.94,0,0,0,8.85-7Z"/></g></g><g id="HEAD"><g id="NECK"><path class="cls-6" d="M408.37,165s-1.76,4.62-13.18,9c0,0,8,11,16.21,21.34,0,0,3.28-9.5,9.2-13.44Z"/><path class="cls-7" d="M420.61,181.94a18.12,18.12,0,0,0-4.43,4.52c-3.77-2.82-8-7.78-9.26-11.38-.62-1.78,1-6.59,2-9.37Z"/></g><path id="HEAD-2" class="cls-6" d="M408.14,165.9c0,1.51-1.31,6.14.28,8,2.89,3.4,11.19,8.85,15.27,8.62,2.91-.16,7-12.77,7.64-14.66s3.27-9.44,1.39-11.46-17.63-6.45-20.76.07C408.49,163.7,408.14,165.9,408.14,165.9Z"/><g id="HAIR"><path class="cls-12" d="M439.19,152c-1.54,10.12-8.13,11.44-21.11,3.84-5.95-3.48-1.74,2.75-5.09,8.16l-1.09.41c0-.54.11-2.79-1-2.8-1.65,0-2.16,2.5-2.32,4l-.63.24s-.07-11.28,1.53-14.86c4-8.87,15.39-4.08,18.19-2.57C436.52,153.22,439.19,152,439.19,152Z"/><path class="cls-15" d="M417.79,155.09c9.23,7.28,16.48,9,20.08,4.73"/></g><g id="HEADPHONES"><rect class="cls-16" x="403.59" y="159.13" width="10.19" height="8.34" rx="4.16" transform="translate(139.79 511.71) rotate(-74.12)"/><path class="cls-17" d="M413.11,163l-.83,2.9a3.59,3.59,0,0,1-4.43,2.47l-1.12-.32-.14-.05a3.56,3.56,0,0,0,4.28-2.5l.83-2.9a3.58,3.58,0,0,0-2.33-4.39l.15,0,1.11.31a3.57,3.57,0,0,1,2.48,4.41Z"/><path class="cls-13" d="M409.52,158.24l3.39-11.9a4.16,4.16,0,0,1,5.14-2.86h0l12.05,3.42a2.34,2.34,0,0,1,1.75,3.1"/></g></g></g><g id="LAPTOP"><path class="cls-8" d="M465.84,252.36H413a3,3,0,0,1-2.78-4.39l17.9-30.26a9,9,0,0,1,7.75-4.27h52.85a3,3,0,0,1,2.77,4.39l-17.89,30.26A9,9,0,0,1,465.84,252.36Z"/><path class="cls-18" d="M465.32,253.33H414.64a2.91,2.91,0,0,1-2.72-4.3l17.53-29.64a8.8,8.8,0,0,1,7.6-4.18h50.68a2.89,2.89,0,0,1,2.71,4.29l-17.52,29.65A8.8,8.8,0,0,1,465.32,253.33Z"/><path class="cls-19" d="M465.84,252.36H413a3,3,0,0,1-2.78-4.39l17.9-30.26a9,9,0,0,1,7.75-4.27h52.85a3,3,0,0,1,2.77,4.39l-17.89,30.26A9,9,0,0,1,465.84,252.36Z"/><rect class="cls-20" x="368.21" y="252.4" width="100.19" height="4.09" rx="1.84"/></g></g></g></g></g><g id="Carolle"><g id="Layer_2-2" data-name="Layer 2"><g id="Слой_1-2" data-name="Слой 1"><g id="_2" data-name=" 2"><g id="CHAIR-2" data-name="CHAIR"><rect class="cls-21" x="650.38" y="355.92" width="6.02" height="39.27"/><path class="cls-22" d="M647.37,326.86h12v27.57a2.85,2.85,0,0,1-2.85,2.84h-6.35a2.84,2.84,0,0,1-2.84-2.84V326.86Z"/><path class="cls-21" d="M674.07,401.91v9h-5.74v-3.63a6.72,6.72,0,0,0-6.72-6.72H645.24a6.72,6.72,0,0,0-6.73,6.72v3.63h-5.74v-9a6.72,6.72,0,0,1,6.72-6.72h27.87A6.71,6.71,0,0,1,674.07,401.91Z"/><circle class="cls-22" cx="671.17" cy="413.55" r="5.97"/><circle class="cls-22" cx="635.4" cy="413.55" r="5.97"/><polygon class="cls-21" points="667.32 313.08 682.15 269.49 692.76 269.49 677.93 313.08 667.32 313.08"/><polygon class="cls-22" points="664.41 313.08 679.24 269.49 689.85 269.49 675.01 313.08 664.41 313.08"/><path class="cls-22" d="M700.41,318.07c0,.85-1.28,1.66-3.6,2.39-6.85,2.17-22.74,3.7-41.25,3.7-17,0-31.86-1.29-39.45-3.19-.66-.17-1.26-.33-1.81-.51-2.32-.73-3.6-1.54-3.6-2.39s.92-1.41,2.61-2.05c6.19-2.35,22.77-4,42.25-4C680.33,312,700.41,314.71,700.41,318.07Z"/><path class="cls-21" d="M700.41,318.07v4.78c0,3.36-20.08,6.09-44.85,6.09-17,0-31.86-1.29-39.45-3.19-3.45-.86-5.41-1.85-5.41-2.9v-4.78c0,.85,1.28,1.66,3.6,2.39.54.18,1.15.34,1.81.51,7.59,1.9,22.41,3.19,39.44,3.19,18.51,0,34.41-1.53,41.26-3.7C699.13,319.73,700.41,318.92,700.41,318.07Z"/><path class="cls-22" d="M722.22,242H665.6a3.76,3.76,0,0,0-3.38,2.6L647.09,289c-.62,1.58.34,3.41,1.78,3.41h55.9a4.89,4.89,0,0,0,4.39-3.39L724,245.43C724.61,243.84,723.66,242,722.22,242Z"/></g><g id="LEFT_HAND-2" data-name="LEFT HAND"><path class="cls-23" d="M604,283.22l-9.33,1.46a20,20,0,0,1-4.55,6.41c-.64.33-4,2.13-4,2.13a2.28,2.28,0,0,1-.1-2.06c.36-.62,2.54-1.69,2.29-2.57s-1.56-.77-2.14-.51c-1.38.62-3.87,2.18-3.6,4.5a1.8,1.8,0,0,1-1.57,2.14s-1-2.5-1-3,.32-5.15,1.45-6.52c.91-1.09,5.33-3.22,7.8-4.32h0l12.47-5.65Z"/><path class="cls-12" d="M644.18,240.32s2,27.3-4.16,34.27-26.79,11-36.29,8.86l-2.37-8.27c9.39-6.34,23.08-14.65,23.08-14.65s4.56-38.26,11.84-43S643.94,234.92,644.18,240.32Z"/><path class="cls-24" d="M601.44,275.4a18.88,18.88,0,0,1,2.16,7.84"/><line class="cls-24" x1="602.11" y1="276.79" x2="607.4" y2="273.91"/><line class="cls-24" x1="602.66" y1="278.27" x2="606.02" y2="277.22"/><line class="cls-24" x1="603.22" y1="280.36" x2="609.93" y2="279.32"/><line class="cls-24" x1="603.6" y1="282" x2="606.9" y2="282"/></g><g id="LEGS-2" data-name="LEGS"><g id="LEFT-2" data-name="LEFT"><path class="cls-25" d="M626.89,420.14H601.47s-.35-4.08,2.91-4.64c2.76-.48,5.38-3.38,5.38-3.38s6.37,3.34,10.19-2a17.93,17.93,0,0,0,3.3-11c1.21,1.46,4.66,5,4.8,10.57A42.72,42.72,0,0,1,626.89,420.14Z"/><path class="cls-26" d="M599.13,309.41c-4.25.58-13.46,8.19-8.27,23.2s25.33,61.94,25.14,66.28c-.26,5.81-6.24,13.23-6.24,13.23s6.37,3.34,10.19-2a17.93,17.93,0,0,0,3.3-11s3.28-36.19-2.41-65.78C618.23,319.73,606.76,308.37,599.13,309.41Z"/></g><g id="RIGHT-2" data-name="RIGHT"><path class="cls-12" d="M646.62,420.14H621.21s-.35-4.08,2.91-4.64c2.76-.48,5.38-3.38,5.38-3.38s6.37,3.34,10.19-2a18,18,0,0,0,3.3-11c1.21,1.46,4.65,5,4.8,10.57A42.25,42.25,0,0,1,646.62,420.14Z"/><path class="cls-23" d="M618.87,309.28c-3.44,2.56-6.93,8.32-1.73,23.33s18.94,61.95,18.6,66.28-6.24,13.23-6.24,13.23,6.37,3.34,10.19-2a18,18,0,0,0,3.3-11s7.35-47.63,4.54-65.78C645.43,319.64,628.41,302.16,618.87,309.28Z"/></g></g><path id="SKIRT" class="cls-27" d="M681.29,269.89s8.16,16.22,11.27,28.75c3.38,13.68-5.18,22.75-24.34,22.91-15.36.13-12.37,10-12.37,10a17.11,17.11,0,0,1-15,0c-8.2-4.16-12.35-2-18.22.25-7.38,2.87-14-2.65-19.76-3-8.59-.52-10.92,5.6-19.91.26,0,0-3.25-22.77,10.29-31.48s57.2-18.08,55.48-26.94Z"/><g id="BLOUSE"><path id="BLOUSE-2" class="cls-12" d="M636.28,217.5c5.23-3.61,18.06-8,23-12.83l20.68-1c6.72,5.23,19.3,12.21,22.16,16.42l-13.94,27.29s-6.11,19.17-7,23-22.66,4.61-33.12.75c0,0-3.12-17.06-4.11-18.06s-6.35-4-5.35-11.33Z"/><path class="cls-24" d="M648.32,271s-3.53-16.85-4.52-17.85-6.14-4-5.35-11.33c.39-3.71,3.45-10.11,3.45-10.11"/></g><g id="RIGHT_HAND-2" data-name="RIGHT HAND"><path class="cls-23" d="M653.2,285.53a5.16,5.16,0,0,1-2.77,3.73c-2.5,1.19-2.9,1.35-5.08,2.55-1.74,1-3,3.18-3.72,4.1-1.72,2.08-3.07-4.21-2.62-5.5a34.06,34.06,0,0,1,9.47-9.25,25.54,25.54,0,0,1,3-1.4c2.67-1,7.33-2.7,12.49-4.52l2.29,8Z"/><path class="cls-12" d="M664,275.19c9.38-6.34,25.17-12.78,25.17-12.78l-1.22-24.89a20.77,20.77,0,0,1,6.15-15.91c3.79-3.7,8.32-5.21,10.84,4.37,0,0,8.37,36-.21,48.61-5.2,7.66-28.87,11-38.38,8.87Z"/><path class="cls-24" d="M664,275.19c9.38-6.34,25.17-12.78,25.17-12.78l-.91-15"/><path class="cls-24" d="M663.75,275.4a19.19,19.19,0,0,1,2.16,7.84"/><line class="cls-24" x1="664.42" y1="276.79" x2="669.71" y2="273.91"/><line class="cls-24" x1="664.97" y1="278.27" x2="668.33" y2="277.22"/><line class="cls-24" x1="665.53" y1="280.36" x2="672.24" y2="279.32"/><line class="cls-24" x1="665.91" y1="282" x2="669.2" y2="282"/></g><g id="HEAD-2-2" data-name="HEAD"><g id="HAIR-2" data-name="HAIR"><path class="cls-28" d="M694.28,189.4s-27.45,8.3-50.89,7.18c0,0-7.8-9.72-3.16-14,4.2-3.86,9.79-6.15,7.47-9.22s-4.56-7.59,2-11.25,18.34-9.34,25.52-5.94c5.31,2.52,2.37,9.57,5.56,9.68,3.7.12,8.4,2.58,7.15,8.76C686.31,182.59,696.6,176.28,694.28,189.4Z"/><path class="cls-29" d="M640.48,196.58s-9.09-9.22-2.54-14.82c4.34-3.7,9.8-5.31,7.47-8.38s-4.56-7.6,2-11.25,18.5-7.82,25.53-6.37"/></g><g id="NECK-2" data-name="NECK"><path class="cls-23" d="M675,181.76s-1.12,14.94,5,21.92c0,0-7.73,11.7-20.93,12.2s.25-11.21.25-11.21,3.24-4.36,2.74-15.44Z"/><path class="cls-26" d="M674.93,181.81c-1.84,4.84-6.3,14.36-13.18,15.26a42.81,42.81,0,0,0,.32-7.84Z"/></g><path id="HEAD-2-3" data-name="HEAD-2" class="cls-23" d="M675,181.76s-4,10.13-13.95,10.13c-1.75,0-8.42-6.67-7.93-17.47s12.16-11.1,12.16-11.1-.83,11.29,9.09,12.87c0,0,2.53-2.24,3.54-.25S675,181.76,675,181.76Z"/><path id="HAIR-2-2" data-name="HAIR-2" class="cls-29" d="M665.3,163.12s-3.74,11.5,6.18,13.08"/><circle id="EARRING" class="cls-30" cx="677.59" cy="183" r="2.91"/><g id="SCARF"><path class="cls-22" d="M679.77,202.77c.2,0,.67.87.5,1-2.68,1.79-11.56,4.57-17.44,2.74-7.75-2.42-2.73-4.61-2.08-4.24C662.8,203.39,671,203.68,679.77,202.77Z"/><path class="cls-22" d="M683,201.87s2.91-4.36,7-3.77A6.77,6.77,0,0,1,683,201.87Z"/><path class="cls-22" d="M683.25,202.33s7.66,0,10.54,5.56A10.26,10.26,0,0,1,683.25,202.33Z"/><circle class="cls-22" cx="681.54" cy="202.55" r="1.56"/></g></g><g id="LAPTOP-2" data-name="LAPTOP"><path class="cls-31" d="M639,291.9h-56.6a3.76,3.76,0,0,1-3.38-2.14l-17.22-36.51a2,2,0,0,1,.93-2.62,2.07,2.07,0,0,1,.85-.19h55.9a4.89,4.89,0,0,1,4.39,2.78l16.91,35.87a2,2,0,0,1-.94,2.62A2,2,0,0,1,639,291.9Z"/><rect class="cls-31" x="578.63" y="291.9" width="94.01" height="4.15" rx="1.87"/></g></g></g></g></g><g id="logo-microsoft-project"><path class="cls-32" d="M254.38,260.29H135.26a9,9,0,0,1-9-9V199.23L172,176.54,229,199.23h25.36a9,9,0,0,1,9,9v43A9,9,0,0,1,254.38,260.29Z"/><path class="cls-33" d="M194.65,138.5l-53.38,19-60.73-19V86.44a9,9,0,0,1,9-9H186a9,9,0,0,1,9,9l-.34,52.06Z"/><path class="cls-34" d="M80.54,138.5H220a9,9,0,0,1,9,9v52.05H89.55a9,9,0,0,1-9-9Z"/><path class="cls-35" d="M126.25,233.59h29a8.64,8.64,0,0,0,8.68-7.34V124.48a8.92,8.92,0,0,0-8.68-9H80.54v74.75a9,9,0,0,0,9,9h36.7Z"/><path class="cls-36" d="M155.28,229.92A12.67,12.67,0,0,0,168,217.24V124.48a12.68,12.68,0,0,0-12.68-12.68H80.54v78.75a9,9,0,0,0,9,9h36.7v30.36Z"/><path class="cls-36" d="M155.28,225.92a8.9,8.9,0,0,0,9-8.68V124.48a8.91,8.91,0,0,0-8.68-9H80.54v74.75a9,9,0,0,0,9,9h36.7v26.69Z"/><path class="cls-35" d="M151.61,225.92a8.91,8.91,0,0,0,9-8.68V124.48a8.92,8.92,0,0,0-8.68-9H80.54v74.75a9,9,0,0,0,9,9h36.7v26.69Z"/><path class="cls-37" d="M62.85,115.47h88.76a9,9,0,0,1,9,9v88.76a9,9,0,0,1-9,9H62.85a9,9,0,0,1-9-9V124.48A9,9,0,0,1,62.85,115.47Z"/><path class="cls-38" d="M108.9,139.16a23.63,23.63,0,0,1,15.68,4.68,17.85,17.85,0,0,1,5.34,13.68,22.69,22.69,0,0,1-2.67,10.34,22,22,0,0,1-7.67,7,23.61,23.61,0,0,1-11.68,2.33h-11v21H85.54V139.16Zm-11.68,29h9.68a12.14,12.14,0,0,0,8.67-2.67,10.58,10.58,0,0,0,3-7.67c0-6.67-3.67-9.68-11-9.68h-10Z"/><text class="cls-39" transform="translate(12.51 52.03)">Mic<tspan class="cls-40" x="61.85" y="0">r</tspan><tspan x="76" y="0">os</tspan><tspan class="cls-41" x="113.78" y="0">o</tspan><tspan class="cls-42" x="135.2" y="0">f</tspan><tspan x="149.65" y="0">t P</tspan><tspan class="cls-40" x="195.6" y="0">r</tspan><tspan class="cls-43" x="209.75" y="0">o</tspan><tspan x="231.65" y="0">ject</tspan></text><text class="cls-44" transform="translate(47.14 337.03)">O<tspan class="cls-45" x="18.17" y="0">r</tspan><tspan x="27.61" y="0">ganisez l</tspan><tspan class="cls-46" x="124.99" y="0">’</tspan><tspan class="cls-47" x="130" y="0">essentiel</tspan></text></g><g id="Calque_11" data-name="Calque 11"><path class="cls-48" d="M66.55,448.14c-.07,0-30.08,11.26-30.13,11.3s0,7.61,0,16.88l0,16.84,3.74-1.46,5.1-2,1.36-.53V475.46c0-9.46,0-13.73.06-13.76s19.8-4.76,19.85-4.73.06,40.3,0,40.34-6.74-.9-14.92-2-14.9-2.05-14.92-2,6.64,2.49,14.81,5.51,14.93,5.5,15,5.51,3.89-1,8.44-2.29l8.28-2.29,0-23.38V452.93l-8.3-2.4C70.35,449.22,66.59,448.14,66.55,448.14ZM146.33,457a7.25,7.25,0,0,0-3.56.75,7.4,7.4,0,0,0-3.71,4.37c-.36,1.13-.38,1.38-.42,4.28l0,2.66h-4.1v3.25h4.11v20.83h3.81V472.28h9.42v20.83h3.8V472.28h5.68V469h-5.68V467c0-2.9.12-3.75.64-4.84a3.39,3.39,0,0,1,2.42-1.86,5.85,5.85,0,0,1,3.24.38l.32.15v-3.47l-.36-.09a8.09,8.09,0,0,0-2.36-.26,7.25,7.25,0,0,0-3.56.75,7.46,7.46,0,0,0-3.71,4.37c-.36,1.13-.38,1.38-.41,4.28l0,2.66h-9.41V467c0-2.9.11-3.75.63-4.84a3.4,3.4,0,0,1,2.43-1.86,5.85,5.85,0,0,1,3.24.38l.31.15v-3.47l-.36-.09a8,8,0,0,0-2.35-.26Zm20.49,1a2.44,2.44,0,0,0-2.15,1.36,2.55,2.55,0,0,0,.44,2.91,2.68,2.68,0,0,0,1.21.64,2.51,2.51,0,0,0,2.93-3.38,2.58,2.58,0,0,0-2-1.51A2.88,2.88,0,0,0,166.82,457.94Zm66.22.88-.9,0a13.89,13.89,0,0,0-5.62,1.38,5,5,0,0,0-.92.51c0,.05,0,.89,0,1.87v1.78l.69-.46a10.33,10.33,0,0,1,5.65-1.87c3.81-.13,6,1.31,6.57,4.23a5.84,5.84,0,0,1-5,7.44,17.25,17.25,0,0,1-3.93.28h-1.87v3.23l2.42,0a22,22,0,0,1,3.25.16,9.49,9.49,0,0,1,4.32,1.61,6.67,6.67,0,0,1,1.36,1.49,7.21,7.21,0,0,1,.37,5.82,6.4,6.4,0,0,1-4,3.53,12.21,12.21,0,0,1-6.09.19,13,13,0,0,1-4.86-2.25l-.14-.1,0,2.08,0,2.08.81.41a13.57,13.57,0,0,0,5.23,1.31,25.32,25.32,0,0,0,3.81-.1,12.29,12.29,0,0,0,4.11-1.19,9.66,9.66,0,0,0,4.55-4.46,9.51,9.51,0,0,0,.9-4.63A7,7,0,0,0,243,480a8.51,8.51,0,0,0-6.62-4.43,1.59,1.59,0,0,1-.52-.13,4,4,0,0,1,.67-.27,14,14,0,0,0,2.3-1.05,9.59,9.59,0,0,0,1.68-1.37,7.79,7.79,0,0,0,1.93-4.19,13.41,13.41,0,0,0,0-3.23,7.38,7.38,0,0,0-4.07-5.4,11.27,11.27,0,0,0-5.33-1.12Zm-116.33,0a19.37,19.37,0,0,0-4.56.49,15.2,15.2,0,0,0-6.31,3.14,16.78,16.78,0,0,0-5.41,10.64,25.36,25.36,0,0,0,.18,7.89,16.26,16.26,0,0,0,5.14,9.15,15.22,15.22,0,0,0,5.76,3,18.73,18.73,0,0,0,3,.5,25,25,0,0,0,3.86-.09A14.61,14.61,0,0,0,129.1,487a21.21,21.21,0,0,0,1.63-3.27,23.11,23.11,0,0,0,1.14-4.78,22.34,22.34,0,0,0,.11-3.06,17.75,17.75,0,0,0-.38-4.58c-1.33-6.36-5.56-10.84-11.47-12.13a17.8,17.8,0,0,0-3.42-.36Zm145,0a11.27,11.27,0,0,0-3.34.37,11.72,11.72,0,0,0-6,3.78,19,19,0,0,0-3.93,8.32,32.9,32.9,0,0,0-.19,12.57,16.16,16.16,0,0,0,1.4,4.11,9.47,9.47,0,0,0,7.74,5.62,15,15,0,0,0,3.12-.12,10.35,10.35,0,0,0,4.93-2.33,11.26,11.26,0,0,0,3.39-6,14.85,14.85,0,0,0,0-5.6,9.28,9.28,0,0,0-5-6.69,10.25,10.25,0,0,0-8.77.13,8,8,0,0,0-3,3.08c-.12.2-.22.4-.32.61a.06.06,0,0,1-.06,0,15,15,0,0,1,.16-3.68c.74-5.56,3.47-9.63,7.17-10.7a7.89,7.89,0,0,1,2.87-.32,11.26,11.26,0,0,1,4.51,1l.55.25s0-.82,0-1.81v-1.8l-.43-.16a14.16,14.16,0,0,0-4.93-.75Zm20.8.53h-7.77c0,.08-1.16,16.86-1.14,16.88a5.66,5.66,0,0,0,.69-.05,41.6,41.6,0,0,1,7.31,0,7.6,7.6,0,0,1,5,2.6,6.58,6.58,0,0,1,1.34,4.32,6.76,6.76,0,0,1-3.34,6.13c-2.33,1.42-5.85,1.53-9,.3a13.86,13.86,0,0,1-2.43-1.23l-.21-.12v4.11l.61.28a9.45,9.45,0,0,0,2.2.72,22.92,22.92,0,0,0,2.78.35,14.57,14.57,0,0,0,8.15-1.56,9.93,9.93,0,0,0,4.78-6.1,13.07,13.07,0,0,0-.27-7.21c-1.21-3.16-3.94-5.21-7.77-5.85a18,18,0,0,0-4.26-.19c-.95,0-1.74.06-1.76,0s.55-8.63.63-9.51l0-.39h12.21v-3.49Zm-166.37,3a13.93,13.93,0,0,1,2.83.26c4.31.86,7.37,4.14,8.45,9a22.46,22.46,0,0,1-.09,9.56c-1.33,5.19-4.77,8.27-9.86,8.83a17.42,17.42,0,0,1-3.15,0c-5.61-.77-9.38-5.28-10-11.94a28.06,28.06,0,0,1,.09-4.43,15.34,15.34,0,0,1,2.59-6.69,14.1,14.1,0,0,1,2.56-2.56,11.7,11.7,0,0,1,3.86-1.74,12.13,12.13,0,0,1,2.7-.3Zm69.24,6.13c-.4,0-.81,0-1.21,0a12,12,0,0,0-6.23,2,12.19,12.19,0,0,0-5.15,9,21.53,21.53,0,0,0,.09,4.64,11.68,11.68,0,0,0,3.34,6.47,10.91,10.91,0,0,0,7,3,21.26,21.26,0,0,0,3-.12,11.57,11.57,0,0,0,3.76-1.16l.74-.37v-3.67l-.62.4a10.47,10.47,0,0,1-3.47,1.48,11.14,11.14,0,0,1-3.27.08,7.24,7.24,0,0,1-4.17-2,8.7,8.7,0,0,1-2.57-6,12,12,0,0,1,1-5.89,9.65,9.65,0,0,1,2.79-3.25,7.92,7.92,0,0,1,4.92-1.3,9.41,9.41,0,0,1,4.8,1.46l.54.33s0-.88,0-2v-2l-.52-.22a12.84,12.84,0,0,0-4.83-1Zm19,0a10.42,10.42,0,0,0-6.78,2.59,13.1,13.1,0,0,0-4,8.26,27.57,27.57,0,0,0,0,4.16,11.75,11.75,0,0,0,3.21,7.3,8.68,8.68,0,0,0,3.47,2.2,11.87,11.87,0,0,0,3.17.63,27.38,27.38,0,0,0,3.41-.12,12.85,12.85,0,0,0,5.5-1.9l.42-.28v-3.58l-.8.54a11.61,11.61,0,0,1-6.68,2.07,7.57,7.57,0,0,1-5.46-1.93c-1.44-1.38-2.17-3.18-2.38-5.88l0-.54h17.06l0-1.8c0-1-.08-2.13-.13-2.57a10.69,10.69,0,0,0-2.93-6.58,8.72,8.72,0,0,0-5.91-2.54,10.29,10.29,0,0,0-1.11,0ZM165,469v24.08h3.8V469H165Zm39.58,2.76h.38a5.18,5.18,0,0,1,3.65,1.4,7.21,7.21,0,0,1,2,5l.05.54H197.56l0-.23a9,9,0,0,1,2.24-4.67,6,6,0,0,1,4.69-2.07Zm54.19,3.46a5.68,5.68,0,0,1,4.39,1.61,6.28,6.28,0,0,1,1.69,2.79,8.87,8.87,0,0,1,.42,2.82,9.13,9.13,0,0,1-.33,3.08,6.38,6.38,0,0,1-4.5,4.63,9.71,9.71,0,0,1-2.69.12,7.63,7.63,0,0,1-1.86-.66,7.88,7.88,0,0,1-3.32-4.24,8.8,8.8,0,0,1-.48-3,6.45,6.45,0,0,1,.41-2.91,7,7,0,0,1,3.7-3.82,5.44,5.44,0,0,1,2.57-.43Z"/></g></g></svg>