<svg xmlns="http://www.w3.org/2000/svg" viewBox="0 0 470 60"><defs><style>.cls-1{fill:#1675f2;}.cls-2{fill:#1776f2;}.cls-3{fill:#1876f2;}.cls-4{fill:#1977f2;}.cls-5{fill:#1a77f2;}.cls-6{fill:#1b78f2;}.cls-7{fill:#1c79f2;}.cls-8{fill:#1d79f2;}.cls-9{fill:#1e7af2;}.cls-10{fill:#1f7af3;}.cls-11{fill:#207bf3;}.cls-12{fill:#217cf3;}.cls-13{fill:#227cf3;}.cls-14{fill:#237df3;}.cls-15{fill:#247df3;}.cls-16{fill:#257ef3;}.cls-17{fill:#267ef3;}.cls-18{fill:#277ff3;}.cls-19{fill:#2880f3;}.cls-20{fill:#2980f3;}.cls-21{fill:#2a81f3;}.cls-22{fill:#2b81f3;}.cls-23{fill:#2c82f3;}.cls-24{fill:#2d83f3;}.cls-25{fill:#2e83f3;}.cls-26{fill:#2f84f3;}.cls-27{fill:#3084f3;}.cls-28{fill:#3185f4;}.cls-29{fill:#3286f4;}.cls-30{fill:#3386f4;}.cls-31{fill:#3487f4;}.cls-32{fill:#3587f4;}.cls-33{fill:#3688f4;}.cls-34{fill:#3789f4;}.cls-35{fill:#3889f4;}.cls-36{fill:#398af4;}.cls-37{fill:#3a8af4;}.cls-38{fill:#3b8bf4;}.cls-39{fill:#3c8cf4;}.cls-40{fill:#3d8cf4;}.cls-41{fill:#3e8df4;}.cls-42{fill:#3f8df4;}.cls-43{fill:#408ef4;}.cls-44{fill:#418ef4;}.cls-45{fill:#428ff4;}.cls-46{fill:#4390f5;}.cls-47{fill:#4490f5;}.cls-48{fill:#4591f5;}.cls-49{fill:#4691f5;}.cls-50{fill:#4792f5;}.cls-51{fill:#4893f5;}.cls-52{fill:#4993f5;}.cls-53{fill:#4a94f5;}.cls-54{fill:#4b94f5;}.cls-55{fill:#4c95f5;}.cls-56{fill:#4d96f5;}.cls-57{fill:#4e96f5;}.cls-58{fill:#4f97f5;}.cls-59{fill:#5097f5;}.cls-60{fill:#5198f5;}.cls-61{fill:#5299f5;}.cls-62{fill:#5399f5;}.cls-63{fill:#549af5;}.cls-64{fill:#559af6;}.cls-65{fill:#569bf6;}.cls-66{fill:#579bf6;}.cls-67{fill:#589cf6;}.cls-68{fill:#599df6;}.cls-69{fill:#5a9df6;}.cls-70{fill:#5b9ef6;}.cls-71{fill:#5c9ef6;}.cls-72{fill:#5d9ff6;}.cls-73{fill:#5ea0f6;}.cls-74{fill:#5fa0f6;}.cls-75{fill:#60a1f6;}.cls-76{fill:#61a1f6;}.cls-77{fill:#62a2f6;}.cls-78{fill:#63a3f6;}.cls-79{fill:#64a3f6;}.cls-80{fill:#65a4f6;}.cls-81{fill:#66a4f6;}.cls-82{fill:#67a5f7;}.cls-83{fill:#68a6f7;}.cls-84{fill:#69a6f7;}.cls-85{fill:#6aa7f7;}.cls-86{fill:#6ba7f7;}.cls-87{fill:#6ca8f7;}.cls-88{fill:#6da9f7;}.cls-89{fill:#6ea9f7;}.cls-90{fill:#6faaf7;}.cls-91{fill:#70aaf7;}.cls-92{fill:#71abf7;}.cls-93{fill:#72abf7;}.cls-94{fill:#73acf7;}.cls-95{fill:#74adf7;}.cls-96{fill:#75adf7;}.cls-97{fill:#76aef7;}.cls-98{fill:#77aef7;}.cls-99{fill:#78aff7;}.cls-100{fill:#79b0f8;}.cls-101{fill:#7ab0f8;}.cls-102{fill:#7bb1f8;}.cls-103{fill:#7cb1f8;}.cls-104{fill:#7db2f8;}.cls-105{fill:#7eb3f8;}.cls-106{fill:#7fb3f8;}.cls-107{fill:#80b4f8;}.cls-108{fill:#81b4f8;}.cls-109{fill:#82b5f8;}.cls-110{fill:#83b6f8;}.cls-111{fill:#84b6f8;}.cls-112{fill:#85b7f8;}.cls-113{fill:#86b7f8;}.cls-114{fill:#87b8f8;}.cls-115{fill:#88b9f8;}.cls-116{fill:#89b9f8;}.cls-117{fill:#8abaf8;}.cls-118{fill:#8bbaf9;}.cls-119{fill:#8cbbf9;}.cls-120{fill:#8dbbf9;}.cls-121{fill:#8ebcf9;}.cls-122{fill:#8fbdf9;}.cls-123{fill:#90bdf9;}.cls-124{fill:#91bef9;}.cls-125{fill:#92bef9;}.cls-126{fill:#93bff9;}.cls-127{fill:#94c0f9;}.cls-128{fill:#95c0f9;}.cls-129{fill:#96c1f9;}.cls-130{fill:#97c1f9;}.cls-131{fill:#98c2f9;}.cls-132{fill:#99c3f9;}.cls-133{fill:#9ac3f9;}.cls-134{fill:#9bc4f9;}.cls-135{fill:#9cc4f9;}.cls-136{fill:#9dc5fa;}.cls-137{fill:#9ec6fa;}.cls-138{fill:#9fc6fa;}.cls-139{fill:#a0c7fa;}.cls-140{fill:#a1c7fa;}.cls-141{fill:#a2c8fa;}.cls-142{fill:#a3c9fa;}.cls-143{fill:#a4c9fa;}.cls-144{fill:#a5cafa;}.cls-145{fill:#a6cafa;}.cls-146{fill:#a7cbfa;}.cls-147{fill:#a8cbfa;}.cls-148{fill:#a9ccfa;}.cls-149{fill:#aacdfa;}.cls-150{fill:#abcdfa;}.cls-151{fill:#accefa;}.cls-152{fill:#adcefa;}.cls-153{fill:#aecffa;}.cls-154{fill:#afd0fb;}.cls-155{fill:#b0d0fb;}.cls-156{fill:#b1d1fb;}.cls-157{fill:#b2d1fb;}.cls-158{fill:#b3d2fb;}.cls-159{fill:#b4d3fb;}.cls-160{fill:#b5d3fb;}.cls-161{fill:#b6d4fb;}.cls-162{fill:#b7d4fb;}.cls-163{fill:#b8d5fb;}.cls-164{fill:#b9d6fb;}.cls-165{fill:#bad6fb;}.cls-166{fill:#bbd7fb;}.cls-167{fill:#bcd7fb;}.cls-168{fill:#bdd8fb;}.cls-169{fill:#bed9fb;}.cls-170{fill:#bfd9fb;}.cls-171{fill:#c0dafb;}.cls-172{fill:#c1dafc;}.cls-173{fill:#c2dbfc;}.cls-174{fill:#c3dbfc;}.cls-175{fill:#c4dcfc;}.cls-176{fill:#c5ddfc;}.cls-177{fill:#c6ddfc;}.cls-178{fill:#c7defc;}.cls-179{fill:#c8defc;}.cls-180{fill:#c9dffc;}.cls-181{fill:#cae0fc;}.cls-182{fill:#cbe0fc;}.cls-183{fill:#cce1fc;}.cls-184{fill:#cde1fc;}.cls-185{fill:#cee2fc;}.cls-186{fill:#cfe3fc;}.cls-187{fill:#d0e3fc;}.cls-188{fill:#d1e4fc;}.cls-189{fill:#d2e4fc;}.cls-190{fill:#d3e5fd;}.cls-191{fill:#d4e6fd;}.cls-192{fill:#d5e6fd;}.cls-193{fill:#d6e7fd;}.cls-194{fill:#d7e7fd;}.cls-195{fill:#d8e8fd;}.cls-196{fill:#d9e8fd;}.cls-197{fill:#dae9fd;}.cls-198{fill:#dbeafd;}.cls-199{fill:#dceafd;}.cls-200{fill:#ddebfd;}.cls-201{fill:#deebfd;}.cls-202{fill:#dfecfd;}.cls-203{fill:#e0edfd;}.cls-204{fill:#e1edfd;}.cls-205{fill:#e2eefd;}.cls-206{fill:#e3eefd;}.cls-207{fill:#e4effd;}.cls-208{fill:#e5f0fe;}.cls-209{fill:#e6f0fe;}.cls-210{fill:#e7f1fe;}.cls-211{fill:#e8f1fe;}.cls-212{fill:#e9f2fe;}.cls-213{fill:#eaf3fe;}.cls-214{fill:#ebf3fe;}.cls-215{fill:#ecf4fe;}.cls-216{fill:#edf4fe;}.cls-217{fill:#eef5fe;}.cls-218{fill:#eff6fe;}.cls-219{fill:#f0f6fe;}.cls-220{fill:#f1f7fe;}.cls-221{fill:#f2f7fe;}.cls-222{fill:#f3f8fe;}.cls-223{fill:#f4f8fe;}.cls-224{fill:#f5f9fe;}.cls-225{fill:#f6fafe;}.cls-226{fill:#f7faff;}.cls-227{fill:#f8fbff;}.cls-228{fill:#f9fbff;}.cls-229{fill:#fafcff;}.cls-230{fill:#fbfdff;}.cls-231{fill:#fcfdff;}.cls-232{fill:#fdfeff;}.cls-233{fill:#fefeff;}.cls-234{fill:#fff;}.cls-235{fill:#002549;}</style></defs><g id="Calque_2" data-name="Calque 2"><g id="background-zoom"><rect class="cls-1" x="235" width="235" height="60"/><rect class="cls-2" x="233.99" width="235" height="60"/><rect class="cls-3" x="232.98" width="235" height="60"/><rect class="cls-4" x="231.97" width="235" height="60"/><rect class="cls-5" x="230.97" width="235" height="60"/><rect class="cls-6" x="229.96" width="235" height="60"/><rect class="cls-7" x="228.95" width="235" height="60"/><rect class="cls-8" x="227.94" width="235" height="60"/><rect class="cls-9" x="226.93" width="235" height="60"/><rect class="cls-10" x="225.92" width="235" height="60"/><rect class="cls-11" x="224.91" width="235" height="60"/><rect class="cls-12" x="223.91" width="235" height="60"/><rect class="cls-13" x="222.9" width="235" height="60"/><rect class="cls-14" x="221.89" width="235" height="60"/><rect class="cls-15" x="220.88" width="235" height="60"/><rect class="cls-16" x="219.87" width="235" height="60"/><rect class="cls-17" x="218.86" width="235" height="60"/><rect class="cls-18" x="217.85" width="235" height="60"/><rect class="cls-19" x="216.85" width="235" height="60"/><rect class="cls-20" x="215.84" width="235" height="60"/><rect class="cls-21" x="214.83" width="235" height="60"/><rect class="cls-22" x="213.82" width="235" height="60"/><rect class="cls-23" x="212.81" width="235" height="60"/><rect class="cls-24" x="211.8" width="235" height="60"/><rect class="cls-25" x="210.79" width="235" height="60"/><rect class="cls-26" x="209.79" width="235" height="60"/><rect class="cls-27" x="208.78" width="235" height="60"/><rect class="cls-28" x="207.77" width="235" height="60"/><rect class="cls-29" x="206.76" width="235" height="60"/><rect class="cls-30" x="205.75" width="235" height="60"/><rect class="cls-31" x="204.74" width="235" height="60"/><rect class="cls-32" x="203.73" width="235" height="60"/><rect class="cls-33" x="202.73" width="235" height="60"/><rect class="cls-34" x="201.72" width="235" height="60"/><rect class="cls-35" x="200.71" width="235" height="60"/><rect class="cls-36" x="199.7" width="235" height="60"/><rect class="cls-37" x="198.69" width="235" height="60"/><rect class="cls-38" x="197.68" width="235" height="60"/><rect class="cls-39" x="196.67" width="235" height="60"/><rect class="cls-40" x="195.67" width="235" height="60"/><rect class="cls-41" x="194.66" width="235" height="60"/><rect class="cls-42" x="193.65" width="235" height="60"/><rect class="cls-43" x="192.64" width="235" height="60"/><rect class="cls-44" x="191.63" width="235" height="60"/><rect class="cls-45" x="190.62" width="235" height="60"/><rect class="cls-46" x="189.61" width="235" height="60"/><rect class="cls-47" x="188.61" width="235" height="60"/><rect class="cls-48" x="187.6" width="235" height="60"/><rect class="cls-49" x="186.59" width="235" height="60"/><rect class="cls-50" x="185.58" width="235" height="60"/><rect class="cls-51" x="184.57" width="235" height="60"/><rect class="cls-52" x="183.56" width="235" height="60"/><rect class="cls-53" x="182.55" width="235" height="60"/><rect class="cls-54" x="181.55" width="235" height="60"/><rect class="cls-55" x="180.54" width="235" height="60"/><rect class="cls-56" x="179.53" width="235" height="60"/><rect class="cls-57" x="178.52" width="235" height="60"/><rect class="cls-58" x="177.51" width="235" height="60"/><rect class="cls-59" x="176.5" width="235" height="60"/><rect class="cls-60" x="175.49" width="235" height="60"/><rect class="cls-61" x="174.48" width="235" height="60"/><rect class="cls-62" x="173.48" width="235" height="60"/><rect class="cls-63" x="172.47" width="235" height="60"/><rect class="cls-64" x="171.46" width="235" height="60"/><rect class="cls-65" x="170.45" width="235" height="60"/><rect class="cls-66" x="169.44" width="235" height="60"/><rect class="cls-67" x="168.43" width="235" height="60"/><rect class="cls-68" x="167.42" width="235" height="60"/><rect class="cls-69" x="166.42" width="235" height="60"/><rect class="cls-70" x="165.41" width="235" height="60"/><rect class="cls-71" x="164.4" width="235" height="60"/><rect class="cls-72" x="163.39" width="235" height="60"/><rect class="cls-73" x="162.38" width="235" height="60"/><rect class="cls-74" x="161.37" width="235" height="60"/><rect class="cls-75" x="160.36" width="235" height="60"/><rect class="cls-76" x="159.36" width="235" height="60"/><rect class="cls-77" x="158.35" width="235" height="60"/><rect class="cls-78" x="157.34" width="235" height="60"/><rect class="cls-79" x="156.33" width="235" height="60"/><rect class="cls-80" x="155.32" width="235" height="60"/><rect class="cls-81" x="154.31" width="235" height="60"/><rect class="cls-82" x="153.3" width="235" height="60"/><rect class="cls-83" x="152.3" width="235" height="60"/><rect class="cls-84" x="151.29" width="235" height="60"/><rect class="cls-85" x="150.28" width="235" height="60"/><rect class="cls-86" x="149.27" width="235" height="60"/><rect class="cls-87" x="148.26" width="235" height="60"/><rect class="cls-88" x="147.25" width="235" height="60"/><rect class="cls-89" x="146.24" width="235" height="60"/><rect class="cls-90" x="145.24" width="235" height="60"/><rect class="cls-91" x="144.23" width="235" height="60"/><rect class="cls-92" x="143.22" width="235" height="60"/><rect class="cls-93" x="142.21" width="235" height="60"/><rect class="cls-94" x="141.2" width="235" height="60"/><rect class="cls-95" x="140.19" width="235" height="60"/><rect class="cls-96" x="139.18" width="235" height="60"/><rect class="cls-97" x="138.18" width="235" height="60"/><rect class="cls-98" x="137.17" width="235" height="60"/><rect class="cls-99" x="136.16" width="235" height="60"/><rect class="cls-100" x="135.15" width="235" height="60"/><rect class="cls-101" x="134.14" width="235" height="60"/><rect class="cls-102" x="133.13" width="235" height="60"/><rect class="cls-103" x="132.12" width="235" height="60"/><rect class="cls-104" x="131.12" width="235" height="60"/><rect class="cls-105" x="130.11" width="235" height="60"/><rect class="cls-106" x="129.1" width="235" height="60"/><rect class="cls-107" x="128.09" width="235" height="60"/><rect class="cls-108" x="127.08" width="235" height="60"/><rect class="cls-109" x="126.07" width="235" height="60"/><rect class="cls-110" x="125.06" width="235" height="60"/><rect class="cls-111" x="124.06" width="235" height="60"/><rect class="cls-112" x="123.05" width="235" height="60"/><rect class="cls-113" x="122.04" width="235" height="60"/><rect class="cls-114" x="121.03" width="235" height="60"/><rect class="cls-115" x="120.02" width="235" height="60"/><rect class="cls-116" x="119.01" width="235" height="60"/><rect class="cls-117" x="118" width="235" height="60"/><rect class="cls-118" x="117" width="235" height="60"/><rect class="cls-119" x="115.99" width="235" height="60"/><rect class="cls-120" x="114.98" width="235" height="60"/><rect class="cls-121" x="113.97" width="235" height="60"/><rect class="cls-122" x="112.96" width="235" height="60"/><rect class="cls-123" x="111.95" width="235" height="60"/><rect class="cls-124" x="110.94" width="235" height="60"/><rect class="cls-125" x="109.94" width="235" height="60"/><rect class="cls-126" x="108.93" width="235" height="60"/><rect class="cls-127" x="107.92" width="235" height="60"/><rect class="cls-128" x="106.91" width="235" height="60"/><rect class="cls-129" x="105.9" width="235" height="60"/><rect class="cls-130" x="104.89" width="235" height="60"/><rect class="cls-131" x="103.88" width="235" height="60"/><rect class="cls-132" x="102.88" width="235" height="60"/><rect class="cls-133" x="101.87" width="235" height="60"/><rect class="cls-134" x="100.86" width="235" height="60"/><rect class="cls-135" x="99.85" width="235" height="60"/><rect class="cls-136" x="98.84" width="235" height="60"/><rect class="cls-137" x="97.83" width="235" height="60"/><rect class="cls-138" x="96.82" width="235" height="60"/><rect class="cls-139" x="95.82" width="235" height="60"/><rect class="cls-140" x="94.81" width="235" height="60"/><rect class="cls-141" x="93.8" width="235" height="60"/><rect class="cls-142" x="92.79" width="235" height="60"/><rect class="cls-143" x="91.78" width="235" height="60"/><rect class="cls-144" x="90.77" width="235" height="60"/><rect class="cls-145" x="89.76" width="235" height="60"/><rect class="cls-146" x="88.76" width="235" height="60"/><rect class="cls-147" x="87.75" width="235" height="60"/><rect class="cls-148" x="86.74" width="235" height="60"/><rect class="cls-149" x="85.73" width="235" height="60"/><rect class="cls-150" x="84.72" width="235" height="60"/><rect class="cls-151" x="83.71" width="235" height="60"/><rect class="cls-152" x="82.7" width="235" height="60"/><rect class="cls-153" x="81.7" width="235" height="60"/><rect class="cls-154" x="80.69" width="235" height="60"/><rect class="cls-155" x="79.68" width="235" height="60"/><rect class="cls-156" x="78.67" width="235" height="60"/><rect class="cls-157" x="77.66" width="235" height="60"/><rect class="cls-158" x="76.65" width="235" height="60"/><rect class="cls-159" x="75.64" width="235" height="60"/><rect class="cls-160" x="74.64" width="235" height="60"/><rect class="cls-161" x="73.63" width="235" height="60"/><rect class="cls-162" x="72.62" width="235" height="60"/><rect class="cls-163" x="71.61" width="235" height="60"/><rect class="cls-164" x="70.6" width="235" height="60"/><rect class="cls-165" x="69.59" width="235" height="60"/><rect class="cls-166" x="68.58" width="235" height="60"/><rect class="cls-167" x="67.58" width="235" height="60"/><rect class="cls-168" x="66.57" width="235" height="60"/><rect class="cls-169" x="65.56" width="235" height="60"/><rect class="cls-170" x="64.55" width="235" height="60"/><rect class="cls-171" x="63.54" width="235" height="60"/><rect class="cls-172" x="62.53" width="235" height="60"/><rect class="cls-173" x="61.52" width="235" height="60"/><rect class="cls-174" x="60.52" width="235" height="60"/><rect class="cls-175" x="59.51" width="235" height="60"/><rect class="cls-176" x="58.5" width="235" height="60"/><rect class="cls-177" x="57.49" width="235" height="60"/><rect class="cls-178" x="56.48" width="235" height="60"/><rect class="cls-179" x="55.47" width="235" height="60"/><rect class="cls-180" x="54.46" width="235" height="60"/><rect class="cls-181" x="53.45" width="235" height="60"/><rect class="cls-182" x="52.45" width="235" height="60"/><rect class="cls-183" x="51.44" width="235" height="60"/><rect class="cls-184" x="50.43" width="235" height="60"/><rect class="cls-185" x="49.42" width="235" height="60"/><rect class="cls-186" x="48.41" width="235" height="60"/><rect class="cls-187" x="47.4" width="235" height="60"/><rect class="cls-188" x="46.39" width="235" height="60"/><rect class="cls-189" x="45.39" width="235" height="60"/><rect class="cls-190" x="44.38" width="235" height="60"/><rect class="cls-191" x="43.37" width="235" height="60"/><rect class="cls-192" x="42.36" width="235" height="60"/><rect class="cls-193" x="41.35" width="235" height="60"/><rect class="cls-194" x="40.34" width="235" height="60"/><rect class="cls-195" x="39.33" width="235" height="60"/><rect class="cls-196" x="38.33" width="235" height="60"/><rect class="cls-197" x="37.32" width="235" height="60"/><rect class="cls-198" x="36.31" width="235" height="60"/><rect class="cls-199" x="35.3" width="235" height="60"/><rect class="cls-200" x="34.29" width="235" height="60"/><rect class="cls-201" x="33.28" width="235" height="60"/><rect class="cls-202" x="32.27" width="235" height="60"/><rect class="cls-203" x="31.27" width="235" height="60"/><rect class="cls-204" x="30.26" width="235" height="60"/><rect class="cls-205" x="29.25" width="235" height="60"/><rect class="cls-206" x="28.24" width="235" height="60"/><rect class="cls-207" x="27.23" width="235" height="60"/><rect class="cls-208" x="26.22" width="235" height="60"/><rect class="cls-209" x="25.21" width="235" height="60"/><rect class="cls-210" x="24.21" width="235" height="60"/><rect class="cls-211" x="23.2" width="235" height="60"/><rect class="cls-212" x="22.19" width="235" height="60"/><rect class="cls-213" x="21.18" width="235" height="60"/><rect class="cls-214" x="20.17" width="235" height="60"/><rect class="cls-215" x="19.16" width="235" height="60"/><rect class="cls-216" x="18.15" width="235" height="60"/><rect class="cls-217" x="17.15" width="235" height="60"/><rect class="cls-218" x="16.14" width="235" height="60"/><rect class="cls-219" x="15.13" width="235" height="60"/><rect class="cls-220" x="14.12" width="235" height="60"/><rect class="cls-221" x="13.11" width="235" height="60"/><rect class="cls-222" x="12.1" width="235" height="60"/><rect class="cls-223" x="11.09" width="235" height="60"/><rect class="cls-224" x="10.09" width="235" height="60"/><rect class="cls-225" x="9.08" width="235" height="60"/><rect class="cls-226" x="8.07" width="235" height="60"/><rect class="cls-227" x="7.06" width="235" height="60"/><rect class="cls-228" x="6.05" width="235" height="60"/><rect class="cls-229" x="5.04" width="235" height="60"/><rect class="cls-230" x="4.03" width="235" height="60"/><rect class="cls-231" x="3.03" width="235" height="60"/><rect class="cls-232" x="2.02" width="235" height="60"/><rect class="cls-233" x="1.01" width="235" height="60"/><rect class="cls-234" width="235" height="60"/><path class="cls-235" d="M263.8,34.38V26.44h3.81a2.77,2.77,0,0,1,1.95.67,2.36,2.36,0,0,1,.72,1.81,2.31,2.31,0,0,1-.29,1.23,2,2,0,0,1-.74.69,4.06,4.06,0,0,1-.89.34l2.09,3.2h-1.07l-1.92-3.05H264.7v3.05Zm.9-3.9h2.75a3,3,0,0,0,.88-.13,1.74,1.74,0,0,0,.75-.47,1.42,1.42,0,0,0,.3-1,1.49,1.49,0,0,0-.51-1.19,2.07,2.07,0,0,0-1.37-.44h-2.8Z"/><path class="cls-235" d="M274.16,34.48a3,3,0,0,1-1.6-.42,2.79,2.79,0,0,1-1.06-1.12,3.27,3.27,0,0,1-.38-1.56,3.35,3.35,0,0,1,.36-1.56,2.85,2.85,0,0,1,1-1.12,3.29,3.29,0,0,1,3.18,0,2.83,2.83,0,0,1,1,1.12,3.35,3.35,0,0,1,.36,1.56v.36h-5a2.35,2.35,0,0,0,.34,1,2,2,0,0,0,.72.69,2.06,2.06,0,0,0,1.06.26,1.92,1.92,0,0,0,1.07-.28,2,2,0,0,0,.67-.73h1a2.74,2.74,0,0,1-2.73,1.83Zm-2.1-3.58h4.08a2.22,2.22,0,0,0-.65-1.28,2.12,2.12,0,0,0-2.78,0A2.28,2.28,0,0,0,272.06,30.9Z"/><path class="cls-235" d="M280.36,34.48a3.12,3.12,0,0,1-1.4-.28,2.09,2.09,0,0,1-.87-.72,2,2,0,0,1-.33-1h.93a1.63,1.63,0,0,0,.21.58,1.3,1.3,0,0,0,.54.46,2.24,2.24,0,0,0,.93.17,2.74,2.74,0,0,0,.45,0,1.91,1.91,0,0,0,.51-.13,1,1,0,0,0,.41-.29.71.71,0,0,0,.17-.49.66.66,0,0,0-.29-.57,2,2,0,0,0-.74-.32l-1-.22a6.73,6.73,0,0,1-1-.29,1.82,1.82,0,0,1-.75-.49,1.25,1.25,0,0,1-.29-.87,1.48,1.48,0,0,1,.6-1.26,2.87,2.87,0,0,1,1.76-.45,3,3,0,0,1,1.29.24,2,2,0,0,1,.75.63,1.83,1.83,0,0,1,.31.83h-.91a1,1,0,0,0-.38-.66,1.72,1.72,0,0,0-1.09-.28c-.95,0-1.43.29-1.43.87a.63.63,0,0,0,.29.55,2.39,2.39,0,0,0,.75.31l1,.21a6,6,0,0,1,1,.28,2,2,0,0,1,.74.51,1.33,1.33,0,0,1,.29.9,1.53,1.53,0,0,1-.67,1.34A3.11,3.11,0,0,1,280.36,34.48Z"/><path class="cls-235" d="M284.61,34.38V29.17h-1.22v-.79h1.22V26.23h.9v2.15h1.38v.79h-1.38v5.21Z"/><path class="cls-235" d="M290.42,34.48a3,3,0,0,1-1.6-.42,2.79,2.79,0,0,1-1.06-1.12,3.27,3.27,0,0,1-.38-1.56,3.35,3.35,0,0,1,.36-1.56,2.85,2.85,0,0,1,1-1.12,3.29,3.29,0,0,1,3.18,0,2.83,2.83,0,0,1,1,1.12,3.35,3.35,0,0,1,.36,1.56v.36h-5a2.35,2.35,0,0,0,.34,1,2,2,0,0,0,.72.69,2.06,2.06,0,0,0,1.06.26,1.92,1.92,0,0,0,1.07-.28,2,2,0,0,0,.67-.73h1a2.9,2.9,0,0,1-1,1.32A2.81,2.81,0,0,1,290.42,34.48Zm-2.1-3.58h4.08a2.22,2.22,0,0,0-.65-1.28,2.12,2.12,0,0,0-2.78,0A2.28,2.28,0,0,0,288.32,30.9Z"/><path class="cls-235" d="M294.44,34.38v-6h.9v1.48a2.48,2.48,0,0,1,.18-.42,2.58,2.58,0,0,1,.41-.52,2.39,2.39,0,0,1,.66-.45,2.35,2.35,0,0,1,1-.18h.06v.9h-.11a1.88,1.88,0,0,0-1.16.36,2.4,2.4,0,0,0-.74.95,2.9,2.9,0,0,0-.26,1.24v2.64Z"/><path class="cls-235" d="M303.71,34.48a2.84,2.84,0,0,1-1.56-.42,2.7,2.7,0,0,1-1-1.12,3.47,3.47,0,0,1,0-3.12,2.76,2.76,0,0,1,2.58-1.53,3,3,0,0,1,1.82.55,2.65,2.65,0,0,1,1,1.43h-1a1.75,1.75,0,0,0-.65-.84,1.79,1.79,0,0,0-1.09-.33,2.09,2.09,0,0,0-1.15.32,2.07,2.07,0,0,0-.76.82,2.63,2.63,0,0,0,0,2.28,2.16,2.16,0,0,0,.76.83,2.08,2.08,0,0,0,1.15.31,1.78,1.78,0,0,0,1.74-1.16h1a2.69,2.69,0,0,1-1,1.43A3,3,0,0,1,303.71,34.48Z"/><path class="cls-235" d="M310.26,34.48a2.94,2.94,0,0,1-1.58-.42,2.66,2.66,0,0,1-1-1.12,3.56,3.56,0,0,1,0-3.12,2.78,2.78,0,0,1,1-1.12,2.93,2.93,0,0,1,1.58-.41,2.9,2.9,0,0,1,1.59.41,2.78,2.78,0,0,1,1,1.12,3.56,3.56,0,0,1,0,3.12,2.66,2.66,0,0,1-1,1.12A2.9,2.9,0,0,1,310.26,34.48Zm0-.82a2,2,0,0,0,1.14-.31,2,2,0,0,0,.7-.83,2.83,2.83,0,0,0,0-2.28,1.93,1.93,0,0,0-.7-.82,2,2,0,0,0-1.14-.32,1.94,1.94,0,0,0-1.12.32,1.88,1.88,0,0,0-.71.82,2.83,2.83,0,0,0,0,2.28,2,2,0,0,0,.71.83A1.94,1.94,0,0,0,310.26,33.66Z"/><path class="cls-235" d="M314.43,34.38v-6h.9v.94a2.9,2.9,0,0,1,.79-.73,2.18,2.18,0,0,1,1.2-.3,2.32,2.32,0,0,1,2.06,1.17,2.73,2.73,0,0,1,.34,1.43v3.49h-.9V30.92a1.81,1.81,0,0,0-.47-1.32,1.58,1.58,0,0,0-1.21-.5,1.8,1.8,0,0,0-1.57.87,1.9,1.9,0,0,0-.24,1v3.45Z"/><path class="cls-235" d="M321.22,34.38v-6h.9v.94a3.06,3.06,0,0,1,.79-.73,2.2,2.2,0,0,1,1.2-.3,2.36,2.36,0,0,1,1.17.29,2.28,2.28,0,0,1,.89.88,2.73,2.73,0,0,1,.34,1.43v3.49h-.9V30.92a1.85,1.85,0,0,0-.46-1.32,1.62,1.62,0,0,0-1.22-.5,1.86,1.86,0,0,0-.91.23,1.74,1.74,0,0,0-.65.64,1.81,1.81,0,0,0-.25,1v3.45Z"/><path class="cls-235" d="M330.68,34.48a3,3,0,0,1-1.6-.42A2.73,2.73,0,0,1,328,32.94a3.27,3.27,0,0,1-.38-1.56,3.35,3.35,0,0,1,.36-1.56,2.78,2.78,0,0,1,1-1.12,3.29,3.29,0,0,1,3.18,0,2.83,2.83,0,0,1,1,1.12,3.35,3.35,0,0,1,.36,1.56v.36h-5a2.51,2.51,0,0,0,.35,1,2,2,0,0,0,.72.69,2.06,2.06,0,0,0,1.06.26,1.92,1.92,0,0,0,1.07-.28,2,2,0,0,0,.67-.73h1a2.9,2.9,0,0,1-1,1.32A2.81,2.81,0,0,1,330.68,34.48Zm-2.1-3.58h4.08a2.22,2.22,0,0,0-.65-1.28,2.12,2.12,0,0,0-2.78,0A2.28,2.28,0,0,0,328.58,30.9Z"/><path class="cls-235" d="M337.28,34.48a2.84,2.84,0,0,1-1.56-.42,2.72,2.72,0,0,1-1-1.12,3.47,3.47,0,0,1,0-3.12,2.79,2.79,0,0,1,2.59-1.53,3,3,0,0,1,1.81.55,2.72,2.72,0,0,1,1,1.43h-1a1.83,1.83,0,0,0-.66-.84,1.78,1.78,0,0,0-1.08-.33,2.12,2.12,0,0,0-1.16.32,2,2,0,0,0-.75.82,2.54,2.54,0,0,0,0,2.28,2,2,0,0,0,1.91,1.14,1.84,1.84,0,0,0,1.08-.32,1.94,1.94,0,0,0,.66-.84h1a2.76,2.76,0,0,1-1,1.43A3,3,0,0,1,337.28,34.48Z"/><path class="cls-235" d="M341.87,34.38V29.17h-1.22v-.79h1.22V26.23h.9v2.15h1.38v.79h-1.38v5.21Z"/><path class="cls-235" d="M347.68,34.48a3,3,0,0,1-1.6-.42A2.79,2.79,0,0,1,345,32.94a3.27,3.27,0,0,1-.38-1.56,3.35,3.35,0,0,1,.36-1.56,2.8,2.8,0,0,1,1-1.12,3.27,3.27,0,0,1,3.17,0,2.85,2.85,0,0,1,1,1.12,3.35,3.35,0,0,1,.36,1.56v.36h-5a2.5,2.5,0,0,0,.34,1,1.94,1.94,0,0,0,.73.69,2,2,0,0,0,1.05.26,1.89,1.89,0,0,0,1.07-.28,2,2,0,0,0,.67-.73h1a3,3,0,0,1-1,1.32A2.86,2.86,0,0,1,347.68,34.48Zm-2.1-3.58h4.08a2.22,2.22,0,0,0-.65-1.28,2.12,2.12,0,0,0-2.78,0A2.35,2.35,0,0,0,345.58,30.9Zm1.36-3.36.73-1.26H349l-1.28,1.26Z"/><path class="cls-235" d="M356.79,34.48a2.74,2.74,0,0,1-1.53-.42,2.7,2.7,0,0,1-1-1.12,3.56,3.56,0,0,1,0-3.12,2.83,2.83,0,0,1,1-1.12,2.66,2.66,0,0,1,3.68.65v-1h.9v6h-.9v-1a2.58,2.58,0,0,1-.87.77A2.72,2.72,0,0,1,356.79,34.48Zm.12-.82a2,2,0,0,0,1.13-.31,2,2,0,0,0,.7-.83,2.83,2.83,0,0,0,0-2.28,1.93,1.93,0,0,0-.7-.82,2,2,0,0,0-1.13-.32,2,2,0,0,0-1.14.32,1.93,1.93,0,0,0-.73.82,2.63,2.63,0,0,0,0,2.28,2,2,0,0,0,1.87,1.14Z"/><path class="cls-235" d="M363,34.38l-2.35-6h1l1.9,5,1.88-5h1l-2.34,6Z"/><path class="cls-235" d="M369.81,34.48a3,3,0,0,1-1.6-.42,2.79,2.79,0,0,1-1.06-1.12,3.27,3.27,0,0,1-.38-1.56,3.35,3.35,0,0,1,.36-1.56,2.85,2.85,0,0,1,1-1.12,3.29,3.29,0,0,1,3.18,0,2.83,2.83,0,0,1,1,1.12,3.35,3.35,0,0,1,.36,1.56v.36h-5a2.35,2.35,0,0,0,.34,1,2,2,0,0,0,.72.69,2.06,2.06,0,0,0,1.06.26,1.92,1.92,0,0,0,1.07-.28,2,2,0,0,0,.67-.73h1a2.74,2.74,0,0,1-2.73,1.83Zm-2.1-3.58h4.08a2.22,2.22,0,0,0-.65-1.28,2.12,2.12,0,0,0-2.78,0A2.28,2.28,0,0,0,367.71,30.9Z"/><path class="cls-235" d="M376.41,34.48a2.84,2.84,0,0,1-1.56-.42,2.79,2.79,0,0,1-1-1.12,3.56,3.56,0,0,1,0-3.12,2.92,2.92,0,0,1,1-1.12,2.84,2.84,0,0,1,1.56-.41,3,3,0,0,1,1.82.55,2.7,2.7,0,0,1,1,1.43h-1a1.83,1.83,0,0,0-.66-.84,1.78,1.78,0,0,0-1.08-.33,2.12,2.12,0,0,0-1.91,1.14,2.63,2.63,0,0,0,0,2.28,2.16,2.16,0,0,0,.76.83,2.06,2.06,0,0,0,1.15.31,1.84,1.84,0,0,0,1.08-.32,1.94,1.94,0,0,0,.66-.84h1a2.74,2.74,0,0,1-1,1.43A3,3,0,0,1,376.41,34.48Z"/><path class="cls-235" d="M385.49,34.48a2.84,2.84,0,0,1-1.56-.42,2.7,2.7,0,0,1-1-1.12,3.47,3.47,0,0,1,0-3.12,2.76,2.76,0,0,1,2.58-1.53,3,3,0,0,1,1.82.55,2.65,2.65,0,0,1,1,1.43h-1a1.75,1.75,0,0,0-.65-.84,1.79,1.79,0,0,0-1.09-.33,2.09,2.09,0,0,0-1.15.32,2.07,2.07,0,0,0-.76.82,2.63,2.63,0,0,0,0,2.28,2.16,2.16,0,0,0,.76.83,2.08,2.08,0,0,0,1.15.31,1.78,1.78,0,0,0,1.74-1.16h1a2.69,2.69,0,0,1-1,1.43A3,3,0,0,1,385.49,34.48Z"/><path class="cls-235" d="M392.1,34.48a3,3,0,0,1-1.59-.42,2.73,2.73,0,0,1-1.06-1.12,3.16,3.16,0,0,1-.38-1.56,3.35,3.35,0,0,1,.36-1.56,2.78,2.78,0,0,1,1-1.12,2.93,2.93,0,0,1,1.58-.41,2.9,2.9,0,0,1,1.59.41,2.78,2.78,0,0,1,1,1.12,3.35,3.35,0,0,1,.36,1.56v.36h-5a2.5,2.5,0,0,0,.34,1,2.05,2.05,0,0,0,1.79.95,1.86,1.86,0,0,0,1.06-.28,2,2,0,0,0,.68-.73h1a3,3,0,0,1-1,1.32A2.82,2.82,0,0,1,392.1,34.48ZM390,30.9h4.08a2.21,2.21,0,0,0-.64-1.28,1.91,1.91,0,0,0-1.4-.52,1.86,1.86,0,0,0-1.38.52A2.29,2.29,0,0,0,390,30.9Z"/><path class="cls-235" d="M403.36,36.76V33.41a2.4,2.4,0,0,1-.87.77,2.58,2.58,0,0,1-1.28.3,2.79,2.79,0,0,1-1.53-.42,2.74,2.74,0,0,1-1-1.12,3.56,3.56,0,0,1,0-3.12,2.88,2.88,0,0,1,1-1.12,2.78,2.78,0,0,1,1.53-.41,2.69,2.69,0,0,1,1.28.28,2.31,2.31,0,0,1,.87.77v-1h.9v8.38Zm-2-3.1a2,2,0,0,0,1.14-.31,2.09,2.09,0,0,0,.7-.83,2.83,2.83,0,0,0,0-2.28,1.94,1.94,0,0,0-1.84-1.14,2,2,0,0,0-1.14.32,2,2,0,0,0-.73.82,2.72,2.72,0,0,0,0,2.28,2.09,2.09,0,0,0,.73.83A2,2,0,0,0,401.33,33.66Z"/><path class="cls-235" d="M408.16,34.48a2.36,2.36,0,0,1-1.16-.3,2.21,2.21,0,0,1-.9-.87,2.78,2.78,0,0,1-.34-1.43v-3.5h.9v3.47a1.87,1.87,0,0,0,.47,1.32,1.61,1.61,0,0,0,1.21.49,1.84,1.84,0,0,0,.91-.23,1.92,1.92,0,0,0,.66-.64,1.84,1.84,0,0,0,.24-.95V28.38h.9v6h-.9v-.93a3.07,3.07,0,0,1-.79.73A2.18,2.18,0,0,1,408.16,34.48Z"/><path class="cls-235" d="M412.58,27.38V26.2h1v1.18Zm0,7v-6h.9v6Z"/><path class="cls-235" d="M420.45,34.48a2.84,2.84,0,0,1-1.56-.42,2.72,2.72,0,0,1-1-1.12,3.56,3.56,0,0,1,0-3.12,2.79,2.79,0,0,1,2.59-1.53,3,3,0,0,1,1.82.55,2.76,2.76,0,0,1,1,1.43h-1a1.83,1.83,0,0,0-.66-.84,1.78,1.78,0,0,0-1.08-.33,2.07,2.07,0,0,0-1.15.32,2,2,0,0,0-.76.82,2.63,2.63,0,0,0,0,2.28,2.09,2.09,0,0,0,.76.83,2.06,2.06,0,0,0,1.15.31,1.84,1.84,0,0,0,1.08-.32,1.94,1.94,0,0,0,.66-.84h1a2.8,2.8,0,0,1-1,1.43A3.07,3.07,0,0,1,420.45,34.48Z"/><path class="cls-235" d="M427,34.48a2.89,2.89,0,0,1-1.58-.42,2.68,2.68,0,0,1-1-1.12,3.56,3.56,0,0,1,0-3.12,2.8,2.8,0,0,1,1-1.12,3.27,3.27,0,0,1,3.17,0,2.85,2.85,0,0,1,1,1.12,3.56,3.56,0,0,1,0,3.12,2.72,2.72,0,0,1-1,1.12A2.9,2.9,0,0,1,427,34.48Zm0-.82a1.93,1.93,0,0,0,1.13-.31,2,2,0,0,0,.71-.83,2.83,2.83,0,0,0,0-2.28A2,2,0,0,0,427,29.1a2,2,0,0,0-1.13.32,2,2,0,0,0-.71.82,2.83,2.83,0,0,0,0,2.28,2,2,0,0,0,.71.83A2,2,0,0,0,427,33.66Z"/><path class="cls-235" d="M431.16,34.38v-6h.9v.91a2.29,2.29,0,0,1,.65-.68,2,2,0,0,1,1.18-.32,2.07,2.07,0,0,1,1.11.31,2.17,2.17,0,0,1,.79.9,3.13,3.13,0,0,1,.38-.49,2.29,2.29,0,0,1,.68-.51,2.25,2.25,0,0,1,1-.21,2.1,2.1,0,0,1,1.08.3,2.31,2.31,0,0,1,.82.85,2.66,2.66,0,0,1,.32,1.32v3.62h-.9v-3.6a1.72,1.72,0,0,0-.43-1.22,1.41,1.41,0,0,0-1.06-.46,1.59,1.59,0,0,0-1.62,1.69v3.59h-.9v-3.6a1.72,1.72,0,0,0-.43-1.22,1.39,1.39,0,0,0-1.06-.46,1.59,1.59,0,0,0-1.62,1.69v3.59Z"/><path class="cls-235" d="M441.58,36.76V28.38h.9v1a2.31,2.31,0,0,1,.87-.77,2.66,2.66,0,0,1,1.28-.28,2.78,2.78,0,0,1,1.53.41,2.88,2.88,0,0,1,1,1.12,3.56,3.56,0,0,1,0,3.12,2.74,2.74,0,0,1-1,1.12,2.79,2.79,0,0,1-1.53.42,2.55,2.55,0,0,1-1.28-.3,2.4,2.4,0,0,1-.87-.77v3.35Zm2.93-3.1a2,2,0,0,0,1.14-.31,2.09,2.09,0,0,0,.73-.83,2.72,2.72,0,0,0,0-2.28,2,2,0,0,0-1.87-1.14,2,2,0,0,0-1.13.32,2,2,0,0,0-.71.82,2.83,2.83,0,0,0,0,2.28,2,2,0,0,0,.71.83A2,2,0,0,0,444.51,33.66Z"/><path class="cls-235" d="M449.37,34.38V29.17h-1.23v-.79h1.23V26.23h.9v2.15h1.38v.79h-1.38v5.21Z"/><path class="cls-235" d="M455.17,34.48a3,3,0,0,1-1.59-.42,2.73,2.73,0,0,1-1.06-1.12,3.16,3.16,0,0,1-.38-1.56,3.35,3.35,0,0,1,.36-1.56,2.78,2.78,0,0,1,1-1.12,2.93,2.93,0,0,1,1.58-.41,2.9,2.9,0,0,1,1.59.41,2.78,2.78,0,0,1,1,1.12,3.35,3.35,0,0,1,.36,1.56v.36h-5a2.5,2.5,0,0,0,.34,1,2.05,2.05,0,0,0,1.79.95,1.86,1.86,0,0,0,1.06-.28,2,2,0,0,0,.68-.73h1a3,3,0,0,1-1,1.32A2.82,2.82,0,0,1,455.17,34.48Zm-2.1-3.58h4.08a2.21,2.21,0,0,0-.64-1.28,1.91,1.91,0,0,0-1.4-.52,1.86,1.86,0,0,0-1.38.52A2.29,2.29,0,0,0,453.07,30.9Z"/><path class="cls-1" d="M110.93,45.52H91.33a11,11,0,0,1,2-6.41L105.63,20.8H95.35a3.86,3.86,0,0,1-2.84-1.17,4,4,0,0,1-1.18-2.9h19.6a11,11,0,0,1-2,6.44L96.64,41.45h10.28a3.85,3.85,0,0,1,2.84,1.19A4,4,0,0,1,110.93,45.52Z"/><path class="cls-1" d="M128.89,15.82a15.14,15.14,0,0,1,10.87,4.48,15.41,15.41,0,0,1,3.3,4.89,15.67,15.67,0,0,1,0,11.93,15.41,15.41,0,0,1-8.19,8.18,15,15,0,0,1-6,1.19A14.8,14.8,0,0,1,123,45.3a15.33,15.33,0,0,1-8.19-8.18,15.55,15.55,0,0,1,0-11.93,15.54,15.54,0,0,1,3.29-4.89A15.34,15.34,0,0,1,123,17,15,15,0,0,1,128.89,15.82Zm8,7.35a11.64,11.64,0,0,0-3.6-2.4,11,11,0,0,0-4.4-.88,10.86,10.86,0,0,0-4.36.88,11.68,11.68,0,0,0-3.61,2.4,11.94,11.94,0,0,0-2.4,3.6,11.34,11.34,0,0,0,0,8.76,11,11,0,0,0,6,6,10.86,10.86,0,0,0,4.36.88,11,11,0,0,0,4.4-.88,11.82,11.82,0,0,0,3.6-2.4,11.51,11.51,0,0,0,2.4-3.61,11.34,11.34,0,0,0,0-8.76A11.58,11.58,0,0,0,136.89,23.17Z"/><path class="cls-1" d="M162.67,15.82a15.12,15.12,0,0,1,6,1.18,15.48,15.48,0,0,1,8.19,8.19,15.67,15.67,0,0,1,0,11.93,15.41,15.41,0,0,1-8.19,8.18,15,15,0,0,1-6,1.19,14.8,14.8,0,0,1-5.94-1.19,15.33,15.33,0,0,1-8.19-8.18,15.55,15.55,0,0,1,0-11.93,15.54,15.54,0,0,1,3.29-4.89,15.34,15.34,0,0,1,4.9-3.3A15,15,0,0,1,162.67,15.82Zm8,7.35a11.76,11.76,0,0,0-3.6-2.4,11,11,0,0,0-4.4-.88,10.86,10.86,0,0,0-4.36.88,11.68,11.68,0,0,0-3.61,2.4,11.94,11.94,0,0,0-2.4,3.6,11.34,11.34,0,0,0,0,8.76,11,11,0,0,0,6,6,10.86,10.86,0,0,0,4.36.88,11,11,0,0,0,4.4-.88,11.94,11.94,0,0,0,3.6-2.4,11.51,11.51,0,0,0,2.4-3.61,11.34,11.34,0,0,0,0-8.76A11.58,11.58,0,0,0,170.67,23.17Z"/><path class="cls-1" d="M222.67,41.54V27.65a7.69,7.69,0,0,0-13.15-5.45,7.37,7.37,0,0,0-2.29,5.45v17.9h-.06a4,4,0,0,1-4-4V27.65a7.22,7.22,0,0,0-1.35-4.39,7.46,7.46,0,0,0-3.1-2.59,8.41,8.41,0,0,0-3.28-.75,7,7,0,0,0-1.29.12A7.5,7.5,0,0,0,190,22.2a7.37,7.37,0,0,0-2.29,5.45V41.54a4,4,0,0,1-4,4h-.06V16.78a3.92,3.92,0,0,1,3.69,2.32q2.9-2.67,5-3a24.53,24.53,0,0,1,3-.29,11.55,11.55,0,0,1,4.77,1A11.87,11.87,0,0,1,205.21,21a14,14,0,0,1,1.41-1.73,12.18,12.18,0,0,1,3.78-2.53,11.81,11.81,0,0,1,9.14,0,12,12,0,0,1,3.75,2.53,12.41,12.41,0,0,1,2.53,3.78,11.35,11.35,0,0,1,.92,4.57v17.9h-.05a4,4,0,0,1-4-4Z"/></g><g id="Calque_4" data-name="Calque 4"><circle class="cls-1" cx="52.72" cy="30.64" r="23.72"/><path class="cls-234" d="M67.08,23.33l.14.07a.88.88,0,0,1,.49.79v14l-.73.18a.87.87,0,0,1-.63-.07,27.31,27.31,0,0,1-4.58-3.54,1.33,1.33,0,0,1-.52-1V28a1.28,1.28,0,0,1,.51-.94,36.75,36.75,0,0,1,4.48-3.73A.87.87,0,0,1,67.08,23.33Z"/><path class="cls-234" d="M41.06,23H53.51a6.68,6.68,0,0,1,6.68,6.68v7.44a1.42,1.42,0,0,1-1.42,1.42H45.67a6,6,0,0,1-6-6V24.41A1.42,1.42,0,0,1,41.06,23Z"/></g></g></svg>